<svg width="20" height="20" viewBox="0 0 20 20" fill="none" xmlns="http://www.w3.org/2000/svg">
<mask id="mask0_6187_3679" style="mask-type:alpha" maskUnits="userSpaceOnUse" x="-2" y="-2" width="23" height="23">
<rect x="-1.21045" y="-1.21033" width="21.786" height="21.786" fill="#D9D9D9"/>
</mask>
<g mask="url(#mask0_6187_3679)">
<path d="M3.32819 18.7601C2.82893 18.7601 2.40153 18.5824 2.046 18.2268C1.69046 17.8713 1.5127 17.4439 1.5127 16.9446V4.23616C1.5127 3.7369 1.69046 3.3095 2.046 2.95396C2.40153 2.59843 2.82893 2.42066 3.32819 2.42066H4.23594V1.51291C4.23594 1.25572 4.32294 1.04013 4.49692 0.866141C4.67091 0.692156 4.8865 0.605164 5.14369 0.605164C5.40089 0.605164 5.61648 0.692156 5.79046 0.866141C5.96445 1.04013 6.05144 1.25572 6.05144 1.51291V2.42066H13.3134V1.51291C13.3134 1.25572 13.4004 1.04013 13.5744 0.866141C13.7484 0.692156 13.964 0.605164 14.2212 0.605164C14.4784 0.605164 14.694 0.692156 14.868 0.866141C15.0419 1.04013 15.1289 1.25572 15.1289 1.51291V2.42066H16.0367C16.5359 2.42066 16.9633 2.59843 17.3189 2.95396C17.6744 3.3095 17.8522 3.7369 17.8522 4.23616V16.9446C17.8522 17.4439 17.6744 17.8713 17.3189 18.2268C16.9633 18.5824 16.5359 18.7601 16.0367 18.7601H3.32819ZM3.32819 16.9446H16.0367V7.86716H3.32819V16.9446ZM9.68244 11.4982C9.42524 11.4982 9.20965 11.4112 9.03567 11.2372C8.86168 11.0632 8.77469 10.8476 8.77469 10.5904C8.77469 10.3332 8.86168 10.1176 9.03567 9.94363C9.20965 9.76965 9.42524 9.68265 9.68244 9.68265C9.93963 9.68265 10.1552 9.76965 10.3292 9.94363C10.5032 10.1176 10.5902 10.3332 10.5902 10.5904C10.5902 10.8476 10.5032 11.0632 10.3292 11.2372C10.1552 11.4112 9.93963 11.4982 9.68244 11.4982ZM6.05144 11.4982C5.79425 11.4982 5.57865 11.4112 5.40467 11.2372C5.23068 11.0632 5.14369 10.8476 5.14369 10.5904C5.14369 10.3332 5.23068 10.1176 5.40467 9.94363C5.57865 9.76965 5.79425 9.68265 6.05144 9.68265C6.30864 9.68265 6.52423 9.76965 6.69821 9.94363C6.8722 10.1176 6.95919 10.3332 6.95919 10.5904C6.95919 10.8476 6.8722 11.0632 6.69821 11.2372C6.52423 11.4112 6.30864 11.4982 6.05144 11.4982ZM13.3134 11.4982C13.0562 11.4982 12.8406 11.4112 12.6667 11.2372C12.4927 11.0632 12.4057 10.8476 12.4057 10.5904C12.4057 10.3332 12.4927 10.1176 12.6667 9.94363C12.8406 9.76965 13.0562 9.68265 13.3134 9.68265C13.5706 9.68265 13.7862 9.76965 13.9602 9.94363C14.1342 10.1176 14.2212 10.3332 14.2212 10.5904C14.2212 10.8476 14.1342 11.0632 13.9602 11.2372C13.7862 11.4112 13.5706 11.4982 13.3134 11.4982ZM9.68244 15.1291C9.42524 15.1291 9.20965 15.0422 9.03567 14.8682C8.86168 14.6942 8.77469 14.4786 8.77469 14.2214C8.77469 13.9642 8.86168 13.7486 9.03567 13.5746C9.20965 13.4006 9.42524 13.3137 9.68244 13.3137C9.93963 13.3137 10.1552 13.4006 10.3292 13.5746C10.5032 13.7486 10.5902 13.9642 10.5902 14.2214C10.5902 14.4786 10.5032 14.6942 10.3292 14.8682C10.1552 15.0422 9.93963 15.1291 9.68244 15.1291ZM6.05144 15.1291C5.79425 15.1291 5.57865 15.0422 5.40467 14.8682C5.23068 14.6942 5.14369 14.4786 5.14369 14.2214C5.14369 13.9642 5.23068 13.7486 5.40467 13.5746C5.57865 13.4006 5.79425 13.3137 6.05144 13.3137C6.30864 13.3137 6.52423 13.4006 6.69821 13.5746C6.8722 13.7486 6.95919 13.9642 6.95919 14.2214C6.95919 14.4786 6.8722 14.6942 6.69821 14.8682C6.52423 15.0422 6.30864 15.1291 6.05144 15.1291ZM13.3134 15.1291C13.0562 15.1291 12.8406 15.0422 12.6667 14.8682C12.4927 14.6942 12.4057 14.4786 12.4057 14.2214C12.4057 13.9642 12.4927 13.7486 12.6667 13.5746C12.8406 13.4006 13.0562 13.3137 13.3134 13.3137C13.5706 13.3137 13.7862 13.4006 13.9602 13.5746C14.1342 13.7486 14.2212 13.9642 14.2212 14.2214C14.2212 14.4786 14.1342 14.6942 13.9602 14.8682C13.7862 15.0422 13.5706 15.1291 13.3134 15.1291Z" fill="#545E6B"/>
</g>
</svg>
