<svg width="28" height="28" viewBox="0 0 28 28" fill="none" xmlns="http://www.w3.org/2000/svg">
<path d="M11.1417 17.675L21.0292 7.7875C21.2626 7.55417 21.5348 7.4375 21.8459 7.4375C22.157 7.4375 22.4292 7.55417 22.6626 7.7875C22.8959 8.02083 23.0126 8.29792 23.0126 8.61875C23.0126 8.93958 22.8959 9.21667 22.6626 9.45L11.9584 20.1833C11.7251 20.4167 11.4529 20.5333 11.1417 20.5333C10.8306 20.5333 10.5584 20.4167 10.3251 20.1833L5.30841 15.1667C5.07508 14.9333 4.96327 14.6562 4.973 14.3354C4.98272 14.0146 5.10425 13.7375 5.33758 13.5042C5.57091 13.2708 5.848 13.1542 6.16883 13.1542C6.48966 13.1542 6.76675 13.2708 7.00008 13.5042L11.1417 17.675Z" fill="#42BD84"/>
</svg>
