<svg viewBox="0 0 16 16" fill="none" xmlns="http://www.w3.org/2000/svg">
<mask id="mask0_221_313" style="mask-type:alpha" maskUnits="userSpaceOnUse" x="0" y="0" width="16" height="16">
<rect width="16" height="16" fill="#D9D9D9"/>
</mask>
<g mask="url(#mask0_221_313)">
<path d="M4 12L2.61867 13.3813C2.42844 13.5716 2.21111 13.6144 1.96667 13.5098C1.72222 13.4054 1.6 13.2188 1.6 12.95V2.80001C1.6 2.47001 1.7175 2.18751 1.9525 1.95251C2.1875 1.71751 2.47 1.60001 2.8 1.60001H13.2C13.53 1.60001 13.8125 1.71751 14.0475 1.95251C14.2825 2.18751 14.4 2.47001 14.4 2.80001V10.8C14.4 11.13 14.2825 11.4125 14.0475 11.6475C13.8125 11.8825 13.53 12 13.2 12H4ZM7.4 7.40001V9.00001C7.4 9.17001 7.45717 9.31251 7.5715 9.42751C7.68583 9.54251 7.8275 9.60001 7.9965 9.60001C8.1655 9.60001 8.30833 9.54251 8.425 9.42751C8.54167 9.31251 8.6 9.17001 8.6 9.00001V7.40001H10.2C10.37 7.40001 10.5125 7.34284 10.6275 7.22851C10.7425 7.11417 10.8 6.97251 10.8 6.80351C10.8 6.63451 10.7425 6.49167 10.6275 6.37501C10.5125 6.25834 10.37 6.20001 10.2 6.20001H8.6V4.60001C8.6 4.43001 8.54283 4.28751 8.4285 4.17251C8.31417 4.05751 8.1725 4.00001 8.0035 4.00001C7.8345 4.00001 7.69167 4.05751 7.575 4.17251C7.45833 4.28751 7.4 4.43001 7.4 4.60001V6.20001H5.8C5.63 6.20001 5.4875 6.25717 5.3725 6.37151C5.2575 6.48584 5.2 6.62751 5.2 6.79651C5.2 6.96551 5.2575 7.10834 5.3725 7.22501C5.4875 7.34167 5.63 7.40001 5.8 7.40001H7.4Z" fill="#545E6B"/>
</g>
</svg>
