<svg width="17" height="17" viewBox="0 0 17 17" fill="none" xmlns="http://www.w3.org/2000/svg">
<path fill-rule="evenodd" clip-rule="evenodd" d="M8.33333 0C12.9357 0 16.6667 3.73096 16.6667 8.33333C16.6667 12.9357 12.9357 16.6667 8.33333 16.6667C3.73096 16.6667 0 12.9357 0 8.33333C0 3.73096 3.73096 0 8.33333 0ZM11.4583 9.375H5.20833C4.63304 9.375 4.16667 9.84137 4.16667 10.4167C4.16667 10.9509 4.56879 11.3912 5.08685 11.4513L5.20833 11.4583H11.4583C12.0336 11.4583 12.5 10.992 12.5 10.4167C12.5 9.88246 12.0979 9.44218 11.5798 9.38201L11.4583 9.375ZM5.20833 4.16667C4.63304 4.16667 4.16667 4.63304 4.16667 5.20833C4.16667 5.78363 4.63304 6.25 5.20833 6.25C5.78363 6.25 6.25 5.78363 6.25 5.20833C6.25 4.63304 5.78363 4.16667 5.20833 4.16667ZM11.4583 4.16667C10.883 4.16667 10.4167 4.63304 10.4167 5.20833C10.4167 5.78363 10.883 6.25 11.4583 6.25C12.0336 6.25 12.5 5.78363 12.5 5.20833C12.5 4.63304 12.0336 4.16667 11.4583 4.16667Z" fill="#F1DA7E"/>
</svg>
