<svg width="17" height="17" viewBox="0 0 17 17" fill="none" xmlns="http://www.w3.org/2000/svg">
<path fill-rule="evenodd" clip-rule="evenodd" d="M16.6667 8.33333C16.6667 3.73096 12.9357 0 8.33333 0C3.73096 0 0 3.73096 0 8.33333C0 12.9357 3.73096 16.6667 8.33333 16.6667C12.9357 16.6667 16.6667 12.9357 16.6667 8.33333ZM4.16667 5.20833C4.16667 4.63304 4.63304 4.16667 5.20833 4.16667C5.78363 4.16667 6.25 4.63304 6.25 5.20833C6.25 5.78363 5.78363 6.25 5.20833 6.25C4.63304 6.25 4.16667 5.78363 4.16667 5.20833ZM10.4167 5.20833C10.4167 4.63304 10.883 4.16667 11.4583 4.16667C12.0336 4.16667 12.5 4.63304 12.5 5.20833C12.5 5.78363 12.0336 6.25 11.4583 6.25C10.883 6.25 10.4167 5.78363 10.4167 5.20833ZM11.7107 12.4687C11.1573 12.607 10.5966 12.2746 10.4512 11.7248C10.4512 11.7248 10.4496 11.7196 10.4481 11.7149C10.447 11.7117 10.4457 11.7078 10.4442 11.7033C10.435 11.6761 10.4173 11.6283 10.3891 11.5666C10.3318 11.4416 10.2361 11.2714 10.0882 11.1024C9.81615 10.7914 9.31398 10.4164 8.33309 10.4164C7.3522 10.4164 6.85002 10.7914 6.57796 11.1024C6.43003 11.2714 6.3344 11.4416 6.2771 11.5666C6.24883 11.6283 6.2312 11.6761 6.22199 11.7033C6.21825 11.7143 6.21598 11.7217 6.21502 11.7249C6.06955 12.2746 5.50884 12.607 4.95545 12.4687C4.39733 12.3291 4.05799 11.7636 4.19752 11.2054C4.20031 11.1945 4.19782 11.2043 4.19782 11.2043L4.19813 11.203L4.1988 11.2004L4.20031 11.1945L4.20405 11.1804C4.20687 11.17 4.21036 11.1575 4.21457 11.143C4.223 11.1141 4.23436 11.0774 4.24912 11.0339C4.27856 10.9471 4.32196 10.8322 4.38321 10.6986C4.50495 10.4329 4.70229 10.0822 5.01009 9.73048C5.64949 8.99974 6.70981 8.33309 8.33309 8.33309C9.95636 8.33309 11.0167 8.99974 11.6561 9.73048C11.9639 10.0822 12.1612 10.4329 12.283 10.6986C12.3442 10.8322 12.3876 10.9471 12.4171 11.0339C12.4318 11.0774 12.4432 11.1141 12.4516 11.143C12.4558 11.1575 12.4593 11.17 12.4621 11.1804L12.4659 11.1945L12.4674 11.2004L12.468 11.203L12.4684 11.2043L12.4687 11.2054C12.6082 11.7636 12.2688 12.3291 11.7107 12.4687Z" fill="#F85271"/>
</svg>
