<svg width="17" height="17" viewBox="0 0 17 17" fill="none" xmlns="http://www.w3.org/2000/svg">
<path fill-rule="evenodd" clip-rule="evenodd" d="M16.6667 8.33333C16.6667 3.73096 12.9357 0 8.33333 0C3.73096 0 0 3.73096 0 8.33333C0 12.9357 3.73096 16.6667 8.33333 16.6667C12.9357 16.6667 16.6667 12.9357 16.6667 8.33333ZM10.4167 5.20833C10.4167 4.63304 10.883 4.16667 11.4583 4.16667C12.0336 4.16667 12.5 4.63304 12.5 5.20833C12.5 5.78363 12.0336 6.25 11.4583 6.25C10.883 6.25 10.4167 5.78363 10.4167 5.20833ZM4.16667 5.20833C4.16667 4.63304 4.63304 4.16667 5.20833 4.16667C5.78363 4.16667 6.25 4.63304 6.25 5.20833C6.25 5.78363 5.78363 6.25 5.20833 6.25C4.63304 6.25 4.16667 5.78363 4.16667 5.20833ZM4.95594 8.36468C5.50934 8.22633 6.07005 8.55878 6.21551 9.10849C6.21647 9.11169 6.21874 9.11906 6.22248 9.13008C6.23169 9.15722 6.24933 9.20508 6.27759 9.26675C6.33489 9.39177 6.43052 9.56191 6.57845 9.73097C6.85051 10.0419 7.35269 10.4169 8.33358 10.4169C9.31447 10.4169 9.81665 10.0419 10.0887 9.73097C10.2366 9.56191 10.3323 9.39177 10.3896 9.26675C10.4178 9.20508 10.4355 9.15722 10.4447 9.13008C10.4484 9.11905 10.4507 9.11169 10.4516 9.10848C10.5971 8.55878 11.1578 8.22633 11.7112 8.36468C12.2693 8.50421 12.6087 9.06977 12.4691 9.62789C12.4664 9.6388 12.4688 9.62908 12.4688 9.62908L12.4685 9.63031L12.4679 9.63294L12.4664 9.6388L12.4626 9.6529C12.4598 9.66334 12.4563 9.67586 12.4521 9.69031C12.4437 9.71919 12.4323 9.75595 12.4176 9.79945C12.3881 9.88624 12.3447 10.0011 12.2835 10.1348C12.1617 10.4004 11.9644 10.7511 11.6566 11.1029C11.0172 11.8336 9.95686 12.5002 8.33358 12.5002C6.7103 12.5002 5.64998 11.8336 5.01058 11.1029C4.70278 10.7511 4.50545 10.4004 4.38371 10.1348C4.32246 10.0011 4.27906 9.88624 4.24961 9.79945C4.23485 9.75595 4.22349 9.71919 4.21507 9.69031C4.21085 9.67586 4.20736 9.66334 4.20454 9.6529L4.2008 9.6388L4.19929 9.63294L4.19862 9.63031L4.19831 9.62908C4.19831 9.62908 4.20454 9.6529 4.19802 9.62789C4.05849 9.06977 4.39782 8.50421 4.95594 8.36468Z" fill="#42BD84"/>
</svg>
