<svg viewBox="0 0 16 16" fill="none" xmlns="http://www.w3.org/2000/svg">
<mask id="mask0_221_218" style="mask-type:alpha" maskUnits="userSpaceOnUse" x="0" y="0" width="16" height="16">
<rect width="16" height="16" fill="#D9D9D9"/>
</mask>
<g mask="url(#mask0_221_218)">
<path d="M5.4 9.60001H10.6V8.91667C10.6 8.52778 10.35 8.19723 9.85 7.92501C9.35 7.65278 8.73333 7.51667 8 7.51667C7.26667 7.51667 6.65 7.65278 6.15 7.92501C5.65 8.19723 5.4 8.52778 5.4 8.91667V9.60001ZM8.0035 6.80001C8.3345 6.80001 8.61667 6.68217 8.85 6.44651C9.08333 6.21084 9.2 5.92751 9.2 5.59651C9.2 5.26551 9.08216 4.98334 8.8465 4.75001C8.61083 4.51667 8.3275 4.40001 7.9965 4.40001C7.6655 4.40001 7.38333 4.51784 7.15 4.75351C6.91667 4.98917 6.8 5.27251 6.8 5.60351C6.8 5.93451 6.91783 6.21667 7.1535 6.45001C7.38917 6.68334 7.6725 6.80001 8.0035 6.80001ZM4 12L2.61867 13.3813C2.42844 13.5716 2.21111 13.6144 1.96667 13.5098C1.72222 13.4054 1.6 13.2188 1.6 12.95V2.80001C1.6 2.47001 1.7175 2.18751 1.9525 1.95251C2.1875 1.71751 2.47 1.60001 2.8 1.60001H13.2C13.53 1.60001 13.8125 1.71751 14.0475 1.95251C14.2825 2.18751 14.4 2.47001 14.4 2.80001V10.8C14.4 11.13 14.2825 11.4125 14.0475 11.6475C13.8125 11.8825 13.53 12 13.2 12H4Z" fill="#545E6B"/>
</g>
</svg>
