<svg viewBox="0 0 18 16" fill="none" xmlns="http://www.w3.org/2000/svg">
<g clip-path="url(#clip0_221_260)">
<mask id="mask0_221_260" style="mask-type:alpha" maskUnits="userSpaceOnUse" x="0" y="-1" width="18" height="18">
<rect y="-1" width="18" height="18" fill="#D9D9D9"/>
</mask>
<g mask="url(#mask0_221_260)">
<path d="M3.75 15.5C3.3375 15.5 2.98438 15.3531 2.69063 15.0594C2.39688 14.7656 2.25 14.4125 2.25 14V3.5C2.25 3.0875 2.39688 2.73438 2.69063 2.44063C2.98438 2.14688 3.3375 2 3.75 2H4.5V1.25C4.5 1.0375 4.57188 0.859375 4.71563 0.715625C4.85938 0.571875 5.0375 0.5 5.25 0.5C5.4625 0.5 5.64063 0.571875 5.78438 0.715625C5.92813 0.859375 6 1.0375 6 1.25V2H12V1.25C12 1.0375 12.0719 0.859375 12.2156 0.715625C12.3594 0.571875 12.5375 0.5 12.75 0.5C12.9625 0.5 13.1406 0.571875 13.2844 0.715625C13.4281 0.859375 13.5 1.0375 13.5 1.25V2H14.25C14.6625 2 15.0156 2.14688 15.3094 2.44063C15.6031 2.73438 15.75 3.0875 15.75 3.5V14C15.75 14.4125 15.6031 14.7656 15.3094 15.0594C15.0156 15.3531 14.6625 15.5 14.25 15.5H3.75ZM3.75 14H14.25V6.5H3.75V14ZM9 9.5C8.7875 9.5 8.60938 9.42813 8.46563 9.28438C8.32188 9.14063 8.25 8.9625 8.25 8.75C8.25 8.5375 8.32188 8.35938 8.46563 8.21563C8.60938 8.07188 8.7875 8 9 8C9.2125 8 9.39063 8.07188 9.53438 8.21563C9.67813 8.35938 9.75 8.5375 9.75 8.75C9.75 8.9625 9.67813 9.14063 9.53438 9.28438C9.39063 9.42813 9.2125 9.5 9 9.5ZM6 9.5C5.7875 9.5 5.60937 9.42813 5.46562 9.28438C5.32187 9.14063 5.25 8.9625 5.25 8.75C5.25 8.5375 5.32187 8.35938 5.46562 8.21563C5.60937 8.07188 5.7875 8 6 8C6.2125 8 6.39063 8.07188 6.53438 8.21563C6.67813 8.35938 6.75 8.5375 6.75 8.75C6.75 8.9625 6.67813 9.14063 6.53438 9.28438C6.39063 9.42813 6.2125 9.5 6 9.5ZM12 9.5C11.7875 9.5 11.6094 9.42813 11.4656 9.28438C11.3219 9.14063 11.25 8.9625 11.25 8.75C11.25 8.5375 11.3219 8.35938 11.4656 8.21563C11.6094 8.07188 11.7875 8 12 8C12.2125 8 12.3906 8.07188 12.5344 8.21563C12.6781 8.35938 12.75 8.5375 12.75 8.75C12.75 8.9625 12.6781 9.14063 12.5344 9.28438C12.3906 9.42813 12.2125 9.5 12 9.5ZM9 12.5C8.7875 12.5 8.60938 12.4281 8.46563 12.2844C8.32188 12.1406 8.25 11.9625 8.25 11.75C8.25 11.5375 8.32188 11.3594 8.46563 11.2156C8.60938 11.0719 8.7875 11 9 11C9.2125 11 9.39063 11.0719 9.53438 11.2156C9.67813 11.3594 9.75 11.5375 9.75 11.75C9.75 11.9625 9.67813 12.1406 9.53438 12.2844C9.39063 12.4281 9.2125 12.5 9 12.5ZM6 12.5C5.7875 12.5 5.60937 12.4281 5.46562 12.2844C5.32187 12.1406 5.25 11.9625 5.25 11.75C5.25 11.5375 5.32187 11.3594 5.46562 11.2156C5.60937 11.0719 5.7875 11 6 11C6.2125 11 6.39063 11.0719 6.53438 11.2156C6.67813 11.3594 6.75 11.5375 6.75 11.75C6.75 11.9625 6.67813 12.1406 6.53438 12.2844C6.39063 12.4281 6.2125 12.5 6 12.5ZM12 12.5C11.7875 12.5 11.6094 12.4281 11.4656 12.2844C11.3219 12.1406 11.25 11.9625 11.25 11.75C11.25 11.5375 11.3219 11.3594 11.4656 11.2156C11.6094 11.0719 11.7875 11 12 11C12.2125 11 12.3906 11.0719 12.5344 11.2156C12.6781 11.3594 12.75 11.5375 12.75 11.75C12.75 11.9625 12.6781 12.1406 12.5344 12.2844C12.3906 12.4281 12.2125 12.5 12 12.5Z" fill="#545E6B"/>
</g>
</g>
<defs>
<clipPath id="clip0_221_260">
<rect width="18" height="16" fill="white"/>
</clipPath>
</defs>
</svg>
