<svg width="13" height="12" viewBox="0 0 13 12" fill="none" xmlns="http://www.w3.org/2000/svg">
<path d="M1.33329 7.33335C1.1444 7.33335 0.98607 7.26946 0.858293 7.14169C0.730515 7.01391 0.666626 6.85558 0.666626 6.66669C0.666626 6.4778 0.730515 6.31946 0.858293 6.19169C0.98607 6.06391 1.1444 6.00002 1.33329 6.00002H4.66663C4.85552 6.00002 5.01385 6.06391 5.14163 6.19169C5.2694 6.31946 5.33329 6.4778 5.33329 6.66669C5.33329 6.85558 5.2694 7.01391 5.14163 7.14169C5.01385 7.26946 4.85552 7.33335 4.66663 7.33335H1.33329ZM1.33329 4.66669C1.1444 4.66669 0.98607 4.6028 0.858293 4.47502C0.730515 4.34724 0.666626 4.18891 0.666626 4.00002C0.666626 3.81113 0.730515 3.6528 0.858293 3.52502C0.98607 3.39724 1.1444 3.33335 1.33329 3.33335H7.33329C7.52218 3.33335 7.68052 3.39724 7.80829 3.52502C7.93607 3.6528 7.99996 3.81113 7.99996 4.00002C7.99996 4.18891 7.93607 4.34724 7.80829 4.47502C7.68052 4.6028 7.52218 4.66669 7.33329 4.66669H1.33329ZM1.33329 2.00002C1.1444 2.00002 0.98607 1.93613 0.858293 1.80835C0.730515 1.68058 0.666626 1.52224 0.666626 1.33335C0.666626 1.14446 0.730515 0.986131 0.858293 0.858354C0.98607 0.730576 1.1444 0.666687 1.33329 0.666687H7.33329C7.52218 0.666687 7.68052 0.730576 7.80829 0.858354C7.93607 0.986131 7.99996 1.14446 7.99996 1.33335C7.99996 1.52224 7.93607 1.68058 7.80829 1.80835C7.68052 1.93613 7.52218 2.00002 7.33329 2.00002H1.33329ZM6.66663 10.6667V9.56669C6.66663 9.4778 6.68329 9.39169 6.71663 9.30835C6.74996 9.22502 6.79996 9.15002 6.86663 9.08335L10.35 5.61669C10.45 5.51669 10.5611 5.44446 10.6833 5.40002C10.8055 5.35558 10.9277 5.33335 11.05 5.33335C11.1833 5.33335 11.3111 5.35835 11.4333 5.40835C11.5555 5.45835 11.6666 5.53335 11.7666 5.63335L12.3833 6.25002C12.4722 6.35002 12.5416 6.46113 12.5916 6.58335C12.6416 6.70558 12.6666 6.8278 12.6666 6.95002C12.6666 7.07224 12.6444 7.19724 12.6 7.32502C12.5555 7.4528 12.4833 7.56669 12.3833 7.66669L8.91663 11.1334C8.84996 11.2 8.77496 11.25 8.69163 11.2834C8.60829 11.3167 8.52218 11.3334 8.43329 11.3334H7.33329C7.1444 11.3334 6.98607 11.2695 6.85829 11.1417C6.73052 11.0139 6.66663 10.8556 6.66663 10.6667ZM11.05 7.60002L11.6666 6.95002L11.05 6.33335L10.4166 6.96669L11.05 7.60002ZM7.66663 10.3334H8.29996L10.3166 8.30002L10.0166 7.98335L9.69996 7.68335L7.66663 9.70002V10.3334ZM7.66663 10.3334V9.70002L9.69996 7.68335L10.3166 8.30002L8.29996 10.3334H7.66663Z" fill="#545E6B"/>
</svg>
