<svg viewBox="0 0 18 16" fill="none" xmlns="http://www.w3.org/2000/svg">
<g clip-path="url(#clip0_221_258)">
<mask id="mask0_221_258" style="mask-type:alpha" maskUnits="userSpaceOnUse" x="0" y="-1" width="18" height="18">
<rect y="-1" width="18" height="18" fill="#D9D9D9"/>
</mask>
<g mask="url(#mask0_221_258)">
<path d="M3 14C2.5875 14 2.23438 13.8531 1.94063 13.5594C1.64688 13.2656 1.5 12.9125 1.5 12.5V3.5C1.5 3.0875 1.64688 2.73438 1.94063 2.44063C2.23438 2.14688 2.5875 2 3 2H15C15.4125 2 15.7656 2.14688 16.0594 2.44063C16.3531 2.73438 16.5 3.0875 16.5 3.5V12.5C16.5 12.9125 16.3531 13.2656 16.0594 13.5594C15.7656 13.8531 15.4125 14 15 14H3ZM9 8.61875C9.0625 8.61875 9.12812 8.60938 9.19687 8.59063C9.26562 8.57188 9.33125 8.54375 9.39375 8.50625L14.7 5.1875C14.8 5.125 14.875 5.04688 14.925 4.95312C14.975 4.85938 15 4.75625 15 4.64375C15 4.39375 14.8938 4.20625 14.6813 4.08125C14.4688 3.95625 14.25 3.9625 14.025 4.1L9 7.25L3.975 4.1C3.75 3.9625 3.53125 3.95938 3.31875 4.09063C3.10625 4.22188 3 4.40625 3 4.64375C3 4.76875 3.025 4.87813 3.075 4.97188C3.125 5.06563 3.2 5.1375 3.3 5.1875L8.60625 8.50625C8.66875 8.54375 8.73438 8.57188 8.80313 8.59063C8.87188 8.60938 8.9375 8.61875 9 8.61875Z" fill="#545E6B"/>
</g>
</g>
<defs>
<clipPath id="clip0_221_258">
<rect width="18" height="16" fill="white"/>
</clipPath>
</defs>
</svg>
