<svg width="17" height="17" viewBox="0 0 17 17" fill="none" xmlns="http://www.w3.org/2000/svg">
<path d="M8.33333 12.5C8.56944 12.5 8.76736 12.4201 8.92708 12.2604C9.08681 12.1007 9.16667 11.9028 9.16667 11.6667C9.16667 11.4306 9.08681 11.2326 8.92708 11.0729C8.76736 10.9132 8.56944 10.8333 8.33333 10.8333C8.09722 10.8333 7.89931 10.9132 7.73958 11.0729C7.57986 11.2326 7.5 11.4306 7.5 11.6667C7.5 11.9028 7.57986 12.1007 7.73958 12.2604C7.89931 12.4201 8.09722 12.5 8.33333 12.5ZM8.33333 9.16667C8.56944 9.16667 8.76736 9.08681 8.92708 8.92708C9.08681 8.76736 9.16667 8.56944 9.16667 8.33333V5C9.16667 4.76389 9.08681 4.56597 8.92708 4.40625C8.76736 4.24653 8.56944 4.16667 8.33333 4.16667C8.09722 4.16667 7.89931 4.24653 7.73958 4.40625C7.57986 4.56597 7.5 4.76389 7.5 5V8.33333C7.5 8.56944 7.57986 8.76736 7.73958 8.92708C7.89931 9.08681 8.09722 9.16667 8.33333 9.16667ZM8.33333 16.6667C7.18056 16.6667 6.09722 16.4479 5.08333 16.0104C4.06944 15.5729 3.1875 14.9792 2.4375 14.2292C1.6875 13.4792 1.09375 12.5972 0.65625 11.5833C0.21875 10.5694 0 9.48611 0 8.33333C0 7.18056 0.21875 6.09722 0.65625 5.08333C1.09375 4.06944 1.6875 3.1875 2.4375 2.4375C3.1875 1.6875 4.06944 1.09375 5.08333 0.65625C6.09722 0.21875 7.18056 0 8.33333 0C9.48611 0 10.5694 0.21875 11.5833 0.65625C12.5972 1.09375 13.4792 1.6875 14.2292 2.4375C14.9792 3.1875 15.5729 4.06944 16.0104 5.08333C16.4479 6.09722 16.6667 7.18056 16.6667 8.33333C16.6667 9.48611 16.4479 10.5694 16.0104 11.5833C15.5729 12.5972 14.9792 13.4792 14.2292 14.2292C13.4792 14.9792 12.5972 15.5729 11.5833 16.0104C10.5694 16.4479 9.48611 16.6667 8.33333 16.6667Z" fill="white"/>
</svg>
