<svg width="267" height="265" viewBox="0 0 267 265" fill="none" xmlns="http://www.w3.org/2000/svg">
<circle cx="134" cy="134" r="117" fill="#F5F5F5"/>
<g clip-path="url(#clip0_1_371)">
<path d="M265.385 120.69C266.921 122.897 265.833 125.36 264.165 127.488C256.835 136.862 253.07 133.345 251.534 131.146C249.998 128.939 256.388 121.05 258.6 119.503C260.803 117.955 263.849 118.483 265.385 120.69Z" fill="white"/>
<path d="M255.633 134.541C255.589 134.541 255.536 134.541 255.492 134.541C253.684 134.488 252.104 133.52 250.805 131.647C249.892 130.328 250.603 127.954 252.929 124.577C254.588 122.167 256.8 119.679 258.091 118.782C260.698 116.961 264.288 117.594 266.105 120.189C267.632 122.378 267.211 125.017 264.858 128.033C261.479 132.351 258.38 134.541 255.633 134.541ZM261.391 119.494C260.601 119.494 259.793 119.731 259.091 120.224C258.135 120.892 256.054 123.135 254.369 125.579C252.306 128.578 251.964 130.249 252.236 130.645C253.219 132.052 254.29 132.747 255.528 132.782C257.704 132.852 260.425 130.821 263.454 126.951C265.306 124.586 265.692 122.704 264.648 121.2C263.893 120.092 262.655 119.494 261.391 119.494Z" fill="#0B1B4E"/>
<path d="M68.6574 235.93C71.7142 217.061 58.9236 199.281 40.0889 196.219C21.2541 193.156 3.50753 205.971 0.450768 224.84C-2.60599 243.71 10.1846 261.49 29.0194 264.552C47.8541 267.615 65.6007 254.8 68.6574 235.93Z" fill="#1B87E6"/>
<path d="M45.6615 158.126L48.4353 158.372L90.9194 163.789L90.1118 264.595H35.7603L2.42261 218.444L6.77635 202.571C11.3232 185.968 20.4783 170.992 33.1797 159.392L36.7785 156.104L45.6615 158.126Z" fill="#1B87E6"/>
<path d="M245.539 218.383H81.9574C77.5159 218.383 73.9258 214.777 73.9258 210.336V101.07C73.9258 96.6207 77.5246 93.0239 81.9574 93.0239H245.539C249.98 93.0239 253.57 96.6295 253.57 101.07V210.336C253.579 214.777 249.98 218.383 245.539 218.383Z" fill="white"/>
<path d="M245.539 219.262H81.9573C77.0418 219.262 73.048 215.252 73.048 210.336V101.07C73.048 96.1458 77.0506 92.1445 81.9573 92.1445H245.539C250.454 92.1445 254.448 96.1546 254.448 101.07V210.336C254.457 215.252 250.454 219.262 245.539 219.262ZM81.9573 93.8945C78.0074 93.8945 74.8035 97.1131 74.8035 101.062V210.328C74.8035 214.285 78.0162 217.495 81.9573 217.495H245.539C249.488 217.495 252.692 214.276 252.692 210.328V101.07C252.692 97.1131 249.48 93.9033 245.539 93.9033H81.9573V93.8945Z" fill="#0B1B4E"/>
<path d="M84.1957 105.538C82.1066 105.538 80.4125 103.841 80.4125 101.748C80.4125 99.6546 82.1066 97.9574 84.1957 97.9574C86.2848 97.9574 87.9789 99.6546 87.9789 101.748C87.9789 103.841 86.2848 105.538 84.1957 105.538ZM84.1957 99.7162C83.0809 99.7162 82.168 100.631 82.168 101.748C82.168 102.864 83.0809 103.779 84.1957 103.779C85.3104 103.779 86.2233 102.864 86.2233 101.748C86.2233 100.631 85.3104 99.7162 84.1957 99.7162Z" fill="#0B1B4E"/>
<path d="M93.974 105.538C91.8849 105.538 90.1908 103.841 90.1908 101.748C90.1908 99.6546 91.8849 97.9574 93.974 97.9574C96.0631 97.9574 97.7572 99.6546 97.7572 101.748C97.7572 103.841 96.0543 105.538 93.974 105.538ZM93.974 99.7162C92.8592 99.7162 91.9463 100.631 91.9463 101.748C91.9463 102.864 92.8592 103.779 93.974 103.779C95.0887 103.779 96.0016 102.864 96.0016 101.748C96.0016 100.631 95.0887 99.7162 93.974 99.7162Z" fill="#0B1B4E"/>
<path d="M103.744 105.538C101.655 105.538 99.9604 103.841 99.9604 101.748C99.9604 99.6546 101.655 97.9574 103.744 97.9574C105.833 97.9574 107.527 99.6546 107.527 101.748C107.527 103.841 105.833 105.538 103.744 105.538ZM103.744 99.7162C102.629 99.7162 101.716 100.631 101.716 101.748C101.716 102.864 102.629 103.779 103.744 103.779C104.858 103.779 105.771 102.864 105.771 101.748C105.771 100.631 104.867 99.7162 103.744 99.7162Z" fill="#0B1B4E"/>
<rect x="103" y="124" width="41" height="2" rx="1" fill="#0B1B4E"/>
<rect x="103" y="134" width="56" height="2" rx="1" fill="#0B1B4E"/>
<rect x="103" y="144" width="41" height="2" rx="1" fill="#0B1B4E"/>
<path d="M29.2297 149.482L31.4505 161.784L27.7024 167.07L40.0614 175.67C47.8384 181.087 58.3278 174.624 57.0111 165.223L55.7471 156.165L29.2297 149.482Z" fill="white"/>
<path d="M46.2497 178.528C43.9236 178.528 41.5975 177.816 39.561 176.4L27.202 167.8C27.0089 167.668 26.8773 167.457 26.8334 167.228C26.7895 166.999 26.8509 166.762 26.9826 166.568L30.52 161.591L28.3607 149.649C28.308 149.358 28.4046 149.051 28.624 148.848C28.8435 148.646 29.1507 148.567 29.4404 148.637L55.9578 155.321C56.3001 155.409 56.5634 155.699 56.6161 156.051L57.8801 165.109C58.5384 169.805 56.4406 174.272 52.4028 176.761C50.4893 177.939 48.3651 178.528 46.2497 178.528ZM28.9313 166.85L40.5617 174.949C43.8709 177.253 48.0579 177.367 51.4899 175.257C54.922 173.146 56.7039 169.347 56.1421 165.346L54.9571 156.877L30.3357 150.669L32.3194 161.626C32.3633 161.864 32.3107 162.101 32.1702 162.295L28.9313 166.85Z" fill="#0B1B4E"/>
<path d="M57.0111 165.223C57.0901 165.812 57.1252 166.384 57.1252 166.947C54.6763 166.568 52.2185 165.627 49.9188 164.027L30.441 150.475L30.8536 149.895L55.7471 156.174L57.0111 165.223Z" fill="#0B1B4E"/>
<path d="M13.4562 107.947C19.3372 100.086 30.5815 97.0076 33.7151 99.2765C34.4875 97.0428 36.0061 94.941 38.1829 93.3493C43.274 89.647 50.0153 90.1658 53.2367 94.5189C56.0368 98.2915 55.2731 103.691 51.7182 107.481C54.3427 109.697 56.8268 112.309 59.0475 115.308C67.913 127.25 49.1112 142.429 45.4421 145.102C35.5233 152.331 20.9962 149.446 12.991 138.656C4.9857 127.866 6.34624 117.436 13.4562 107.947Z" fill="#0B1B4E"/>
<path d="M15.1152 111.245C18.4858 110.331 21.6458 110.436 24.1738 111.782C31.3101 115.581 34.1101 131.401 23.5067 139.615C22.8484 140.125 21.9179 140.309 21.4088 140.951C14.176 131.164 12.0869 119.837 15.1152 111.245Z" fill="#0B1B4E"/>
<path d="M52.1131 107.112C48.7952 111.632 43.3881 115.941 36.6556 118.993C25.3236 124.12 13.8073 124.058 8.25977 119.397C8.49676 112.054 11.3583 105.652 16.8707 101.73C26.2804 95.0202 40.5705 97.6232 52.1131 107.112Z" fill="#0B1B4E"/>
<path d="M21.2332 137.232C22.9799 136.44 24.8408 136.247 26.5963 136.563C30.2127 132.008 31.0817 126.265 30.1689 121.376C32.3106 120.769 34.4787 119.978 36.6468 119.001C43.2476 116.012 48.5669 111.817 51.9024 107.393C54.4567 109.609 56.8794 112.212 59.0563 115.176C69.7299 129.713 70.5112 147.301 60.8118 154.45C53.5439 159.806 42.4489 157.783 32.8548 150.326C31.9244 151.874 30.5463 153.166 28.7732 153.967C24.1649 156.051 18.7403 154.002 16.66 149.385C14.5797 144.75 16.6249 139.316 21.2332 137.232Z" fill="white"/>
<path d="M51.0686 158.337C45.3982 158.337 39.0519 156.042 33.0655 151.583C32.0473 152.964 30.7043 154.054 29.1331 154.767C26.6929 155.875 23.963 155.954 21.4526 155.013C18.9422 154.063 16.9584 152.19 15.8524 149.745C14.7464 147.301 14.6674 144.566 15.6067 142.051C16.5547 139.536 18.4243 137.548 20.8645 136.44C22.5498 135.675 24.3844 135.402 26.2101 135.622C29.1243 131.709 30.2479 126.608 29.2999 121.543C29.2121 121.094 29.4842 120.655 29.9231 120.532C32.0648 119.925 34.1978 119.142 36.2781 118.201C42.5103 115.378 47.8033 111.351 51.1914 106.866C51.3407 106.672 51.5601 106.549 51.7971 106.523C52.0429 106.496 52.2799 106.576 52.4642 106.734C55.1414 109.055 57.5904 111.72 59.7497 114.657C65.0163 121.824 68.0973 129.959 68.4396 137.548C68.782 145.269 66.254 151.522 61.3209 155.163C58.4243 157.282 54.9044 158.328 51.0686 158.337ZM32.8548 149.429C33.0479 149.429 33.2411 149.49 33.3903 149.613C42.9843 157.08 53.5439 158.689 60.2851 153.72C64.7354 150.44 67.0089 144.715 66.6929 137.601C66.3681 130.355 63.4012 122.572 58.3453 115.677C56.4581 113.101 54.3251 110.744 52.0166 108.651C48.4528 113.066 43.1599 116.996 37.0067 119.784C35.0932 120.655 33.1269 121.393 31.1607 121.983C31.9771 127.47 30.5814 132.931 27.281 137.1C27.0791 137.355 26.7543 137.478 26.4383 137.416C24.7881 137.126 23.1116 137.328 21.5931 138.023C19.5742 138.938 18.0381 140.582 17.2569 142.649C16.4757 144.724 16.5459 146.975 17.4588 148.998C18.3716 151.021 20.0131 152.56 22.0758 153.342C24.1474 154.125 26.3945 154.054 28.4133 153.14C29.9582 152.445 31.231 151.302 32.1 149.842C32.2316 149.622 32.4423 149.473 32.6881 149.429C32.7495 149.438 32.8022 149.429 32.8548 149.429Z" fill="#0B1B4E"/>
<path d="M33.4255 99.8657C33.4167 99.8657 33.3991 99.8657 33.3904 99.8657C32.9076 99.8481 32.5302 99.4348 32.5477 98.9511C32.7233 94.5805 35.0845 91.1244 39.3768 88.9523C42.5367 87.3518 45.6001 87.0176 45.7318 87.0088C46.2234 86.956 46.6447 87.3078 46.6974 87.7915C46.75 88.2751 46.3989 88.706 45.9161 88.7588C45.8898 88.7588 43.0019 89.0842 40.1229 90.5528C36.4099 92.4523 34.4437 95.3016 34.2945 99.0302C34.2857 99.4963 33.8995 99.8657 33.4255 99.8657Z" fill="#0B1B4E"/>
<path d="M61.3649 122.009C61.7336 123.381 61.321 124.674 60.452 124.911C59.583 125.14 58.5824 124.225 58.2137 122.853C57.845 121.481 58.2576 120.189 59.1266 119.951C59.9956 119.723 60.9962 120.646 61.3649 122.009Z" fill="#0B1B4E"/>
<path d="M55.6768 118.764C55.396 118.764 55.1151 118.623 54.9483 118.377C54.6762 117.973 54.7815 117.427 55.1853 117.155C55.2994 117.076 57.9591 115.317 61.2068 115.273H61.2156C61.6983 115.273 62.0846 115.66 62.0933 116.143C62.1021 116.627 61.7071 117.032 61.2244 117.032C58.4945 117.067 56.186 118.597 56.1596 118.615C56.0104 118.711 55.8436 118.764 55.6768 118.764Z" fill="#0B1B4E"/>
<path d="M49.1463 127.971C49.5149 129.343 49.1024 130.636 48.2334 130.873C47.3644 131.102 46.3637 130.187 45.9951 128.816C45.6264 127.444 46.039 126.151 46.908 125.914C47.777 125.676 48.7776 126.6 49.1463 127.971Z" fill="#0B1B4E"/>
<path d="M40.9567 128.279C40.8426 128.279 40.7285 128.262 40.6232 128.209C40.1755 128.024 39.9649 127.505 40.1492 127.057C40.237 126.837 42.4665 121.596 47.4259 120.822C47.8999 120.751 48.3563 121.077 48.4266 121.552C48.5056 122.035 48.172 122.484 47.698 122.554C43.7217 123.179 41.7906 127.681 41.7731 127.734C41.6239 128.077 41.2991 128.279 40.9567 128.279Z" fill="#0B1B4E"/>
<path d="M57.3709 133.45C57.0374 133.45 56.7214 133.257 56.5722 132.931C56.3703 132.492 56.5722 131.973 57.011 131.77C57.7923 131.41 59.0124 130.592 59.1265 129.968C59.144 129.888 59.1704 129.713 58.8719 129.405C57.3095 127.804 53.4912 122.528 53.3332 122.308C53.0523 121.912 53.1401 121.367 53.5263 121.077C53.9213 120.795 54.4655 120.883 54.7552 121.27C54.7903 121.323 58.6525 126.661 60.1271 128.174C60.8996 128.974 60.9435 129.765 60.8469 130.284C60.5221 132.025 58.196 133.151 57.7308 133.362C57.6167 133.424 57.4938 133.45 57.3709 133.45Z" fill="#0B1B4E"/>
<path d="M56.4494 141.022C54.2725 141.022 51.5602 140.134 48.6987 137.064C48.3651 136.713 48.3827 136.15 48.7426 135.824C49.0937 135.49 49.6555 135.508 49.9802 135.868C55.5628 141.857 60.1097 138.164 60.3028 138.005C60.6715 137.698 61.2245 137.742 61.5405 138.111C61.8565 138.48 61.8126 139.034 61.4439 139.342C61.4 139.368 59.4163 141.022 56.4494 141.022Z" fill="#0B1B4E"/>
<path d="M21.0665 143.018C20.7768 143.018 20.4959 142.877 20.3291 142.622C20.0658 142.218 20.1799 141.672 20.5837 141.409C24.1387 139.078 28.0272 141.268 28.1852 141.365C28.6065 141.611 28.747 142.147 28.51 142.569C28.2642 142.992 27.7287 143.132 27.3162 142.895C27.1845 142.825 24.1825 141.154 21.5492 142.886C21.3912 142.965 21.2245 143.018 21.0665 143.018Z" fill="#0B1B4E"/>
<path d="M154.856 204.981L148.519 204.532L149.984 204.365C151.995 204.137 153.662 202.545 153.776 200.522C153.908 198.157 152.038 196.195 149.704 196.195H124.766H116.743L125.161 189.758C127.303 188.123 128.681 185.66 128.953 182.969C129.129 181.202 127.224 179.971 125.635 180.762L115.936 185.616C110.757 188.211 106.184 191.886 102.532 196.407C101.988 197.075 101.496 197.778 101.031 198.5L28.4134 219.324C14.0794 223.431 8.89178 241.089 18.7228 252.319C24.8321 259.31 34.8913 261.263 43.1687 257.077L104.709 225.937C107.141 227.397 109.993 228.223 113.039 228.171C118.306 228.083 122.897 227.96 123.09 227.81L144.086 234.063C145.833 234.581 147.562 233.939 148.106 232.576C148.703 231.09 147.694 229.279 145.859 228.54L134.773 224.081L150.397 223.378C152.416 223.29 154.189 221.821 154.452 219.807C154.751 217.459 153.022 215.366 150.695 215.199L134.667 214.065L154.909 213.159C157.191 213.054 158.982 211.093 158.797 208.727C158.622 206.687 156.893 205.121 154.856 204.981Z" fill="white"/>
<path d="M34.0048 260.137C28.0447 260.137 22.19 257.622 18.0557 252.891C13.2455 247.386 11.5953 239.911 13.6581 232.893C15.7209 225.875 21.1455 220.485 28.1676 218.471L100.478 197.734C100.952 197.022 101.4 196.398 101.848 195.844C105.604 191.2 110.213 187.498 115.541 184.825L125.24 179.971C126.285 179.452 127.531 179.54 128.488 180.208C129.436 180.859 129.927 181.923 129.813 183.057C129.515 185.977 128.014 188.677 125.688 190.462L119.342 195.316H149.712C151.073 195.316 152.39 195.888 153.32 196.873C154.268 197.875 154.742 199.194 154.663 200.575C154.584 201.903 153.943 203.108 152.96 203.969L154.926 204.11C157.446 204.286 159.482 206.247 159.675 208.665C159.78 210.037 159.35 211.348 158.446 212.368C157.551 213.388 156.304 213.986 154.953 214.047L149.906 214.276L150.757 214.338C152.109 214.434 153.381 215.094 154.242 216.149C155.119 217.213 155.497 218.559 155.321 219.939C155.023 222.296 152.925 224.161 150.441 224.275L138.863 224.794L146.193 227.74C147.272 228.171 148.15 228.927 148.668 229.868C149.221 230.87 149.317 231.952 148.931 232.919C148.211 234.713 146.026 235.575 143.849 234.924L123.046 228.733C122.194 228.857 119.93 228.953 113.057 229.068C110.125 229.12 107.255 228.382 104.683 226.948L43.5637 257.877C40.5091 259.398 37.2438 260.137 34.0048 260.137ZM126.662 181.386C126.443 181.386 126.223 181.439 126.021 181.536L116.322 186.39C111.213 188.949 106.798 192.502 103.208 196.943C102.743 197.523 102.269 198.183 101.769 198.957C101.655 199.133 101.479 199.265 101.277 199.326L28.6592 220.15C22.2164 221.997 17.2482 226.939 15.3522 233.385C13.465 239.823 14.966 246.682 19.3812 251.73C25.2359 258.422 34.8475 260.286 42.7737 256.276L104.314 225.137C104.586 225.005 104.902 225.014 105.157 225.163C107.544 226.596 110.274 227.326 113.022 227.274C120.825 227.142 122.466 227.019 122.791 226.966C122.967 226.904 123.16 226.895 123.335 226.948L144.332 233.201C145.64 233.588 146.912 233.174 147.29 232.225C147.474 231.759 147.421 231.213 147.123 230.686C146.798 230.096 146.228 229.622 145.525 229.331L134.439 224.873C134.053 224.715 133.834 224.319 133.904 223.905C133.974 223.501 134.316 223.193 134.729 223.176L150.353 222.472C151.995 222.402 153.381 221.197 153.575 219.676C153.689 218.787 153.443 217.917 152.872 217.231C152.311 216.536 151.503 216.123 150.617 216.061L134.588 214.927C134.123 214.892 133.763 214.505 133.772 214.039C133.781 213.573 134.15 213.194 134.615 213.168L154.856 212.262C155.734 212.227 156.533 211.84 157.112 211.181C157.691 210.521 157.972 209.668 157.902 208.78C157.779 207.223 156.436 205.957 154.777 205.843L148.44 205.394C147.983 205.359 147.632 204.99 147.623 204.532C147.615 204.075 147.948 203.688 148.396 203.635L149.862 203.468C151.494 203.275 152.793 201.982 152.881 200.452C152.934 199.555 152.627 198.711 152.012 198.06C151.398 197.409 150.573 197.057 149.686 197.057H116.717C116.34 197.057 116.006 196.82 115.883 196.459C115.76 196.099 115.883 195.712 116.182 195.483L124.599 189.046C126.548 187.56 127.803 185.308 128.049 182.864C128.119 182.169 127.672 181.773 127.47 181.641C127.233 181.474 126.952 181.386 126.662 181.386Z" fill="#0B1B4E"/>
<path d="M149.984 205.253H132.534C132.052 205.253 131.657 204.858 131.657 204.374C131.657 203.89 132.052 203.495 132.534 203.495H149.984C150.467 203.495 150.862 203.89 150.862 204.374C150.862 204.858 150.467 205.253 149.984 205.253Z" fill="#0B1B4E"/>
<path d="M46.8728 214.865C46.8114 214.865 46.7499 214.856 46.6885 214.848C46.2145 214.742 45.9161 214.276 46.0214 213.801L48.0403 204.488C48.1456 204.013 48.6108 203.714 49.0848 203.82C49.5588 203.925 49.8572 204.392 49.7519 204.866L47.733 214.179C47.6453 214.584 47.2766 214.865 46.8728 214.865Z" fill="#0B1B4E"/>
<path d="M262.436 159.023C263.612 161.864 262.278 165.117 259.442 166.305C256.607 167.483 253.359 166.146 252.174 163.306C250.998 160.465 252.332 157.212 255.168 156.024C258.003 154.846 261.259 156.183 262.436 159.023Z" fill="white"/>
<path d="M257.309 167.615C256.475 167.615 255.65 167.448 254.86 167.122C253.272 166.463 252.034 165.232 251.376 163.64C250.717 162.048 250.708 160.298 251.367 158.707C252.025 157.115 253.254 155.875 254.843 155.215C258.117 153.852 261.891 155.409 263.252 158.689C264.612 161.969 263.059 165.751 259.785 167.114C258.986 167.448 258.152 167.615 257.309 167.615ZM257.309 156.473C256.712 156.473 256.098 156.587 255.519 156.833C254.369 157.317 253.465 158.214 252.991 159.375C252.517 160.536 252.517 161.802 252.999 162.963C253.482 164.115 254.378 165.021 255.536 165.496C256.695 165.97 257.968 165.97 259.118 165.487C261.496 164.493 262.629 161.74 261.637 159.357C260.882 157.563 259.135 156.473 257.309 156.473Z" fill="#0B1B4E"/>
<path d="M261.988 147.556C263.164 150.396 261.83 153.65 258.995 154.837C256.16 156.016 252.912 154.679 251.727 151.838C250.551 148.998 251.885 145.744 254.72 144.557C257.555 143.37 260.803 144.715 261.988 147.556Z" fill="white"/>
<path d="M256.862 156.139C254.343 156.139 251.946 154.644 250.919 152.173C249.559 148.892 251.112 145.111 254.386 143.748C255.975 143.088 257.722 143.08 259.311 143.739C260.9 144.399 262.137 145.63 262.796 147.222C263.454 148.813 263.463 150.563 262.804 152.155C262.146 153.747 260.917 154.987 259.328 155.646C258.521 155.98 257.687 156.139 256.862 156.139ZM256.853 145.005C256.247 145.005 255.633 145.129 255.054 145.366C252.675 146.36 251.543 149.112 252.534 151.495C253.526 153.879 256.274 155.013 258.652 154.019C259.802 153.536 260.706 152.639 261.18 151.478C261.654 150.317 261.654 149.051 261.172 147.89C260.689 146.738 259.794 145.832 258.635 145.357C258.064 145.12 257.459 145.005 256.853 145.005Z" fill="#0B1B4E"/>
<path d="M261.505 136.053C262.681 138.894 261.347 142.147 258.512 143.335C255.677 144.513 252.429 143.176 251.244 140.336C250.068 137.495 251.402 134.242 254.237 133.054C257.072 131.876 260.32 133.213 261.505 136.053Z" fill="white"/>
<path d="M256.379 144.645C255.545 144.645 254.72 144.478 253.93 144.152C252.341 143.493 251.104 142.262 250.445 140.67C249.787 139.078 249.778 137.328 250.436 135.737C251.095 134.145 252.324 132.905 253.912 132.245C257.186 130.882 260.961 132.439 262.321 135.719C263.682 138.999 262.128 142.781 258.854 144.144C258.055 144.478 257.213 144.645 256.379 144.645ZM256.37 133.503C255.773 133.503 255.159 133.617 254.579 133.863C253.43 134.347 252.525 135.244 252.051 136.405C251.577 137.566 251.578 138.832 252.06 139.993C252.543 141.145 253.438 142.051 254.597 142.526C255.756 143 257.028 143 258.178 142.517C260.557 141.523 261.689 138.77 260.698 136.387C259.943 134.593 258.205 133.503 256.37 133.503Z" fill="#0B1B4E"/>
<path d="M231.424 142.895C231.424 156.323 220.557 167.21 207.154 167.21C193.75 167.21 182.883 156.323 182.883 142.895C182.883 129.466 193.75 118.579 207.154 118.579C220.566 118.579 231.424 129.466 231.424 142.895Z" fill="#1B87E6"/>
<path d="M221.874 116.425L206.144 143.352H237.112C237.129 143.352 237.138 142.789 237.138 142.429C237.138 131.208 230.985 121.578 221.874 116.425Z" fill="#0B1B4E"/>
</g>
<mask id="path-42-inside-1_1_371" fill="white">
<path fill-rule="evenodd" clip-rule="evenodd" d="M66.25 56L51.25 74L36.25 56H18C13.5817 56 10 52.4183 10 48V8C10 3.58173 13.5817 0 18 0H178C182.418 0 186 3.58172 186 8V48C186 52.4183 182.418 56 178 56H66.25Z"/>
</mask>
<path fill-rule="evenodd" clip-rule="evenodd" d="M66.25 56L51.25 74L36.25 56H18C13.5817 56 10 52.4183 10 48V8C10 3.58173 13.5817 0 18 0H178C182.418 0 186 3.58172 186 8V48C186 52.4183 182.418 56 178 56H66.25Z" fill="white"/>
<path d="M51.25 74L52.7865 75.2804L51.25 77.1241L49.7136 75.2804L51.25 74ZM66.25 56L64.7136 54.7196L65.3133 54H66.25V56ZM36.25 56V54H37.1868L37.7865 54.7196L36.25 56ZM49.7136 72.7196L64.7136 54.7196L67.7865 57.2804L52.7865 75.2804L49.7136 72.7196ZM37.7865 54.7196L52.7865 72.7196L49.7136 75.2804L34.7136 57.2804L37.7865 54.7196ZM18 54H36.25V58H18V54ZM12 48C12 51.3137 14.6863 54 18 54V58C12.4772 58 8 53.5228 8 48H12ZM12 8V48H8V8H12ZM18 2C14.6863 2 12 4.68629 12 8H8C8 2.47716 12.4772 -2 18 -2V2ZM178 2H18V-2H178V2ZM184 8C184 4.68629 181.314 2 178 2V-2C183.523 -2 188 2.47715 188 8H184ZM184 48V8H188V48H184ZM178 54C181.314 54 184 51.3137 184 48H188C188 53.5228 183.523 58 178 58V54ZM66.25 54H178V58H66.25V54Z" fill="#1B87E6" mask="url(#path-42-inside-1_1_371)"/>
<path d="M154.153 17.4399C154.837 15.7973 157.163 15.7973 157.847 17.4399L159.763 22.0472C160.051 22.7396 160.702 23.2128 161.45 23.2727L166.424 23.6715C168.197 23.8136 168.916 26.0266 167.565 27.184L163.775 30.4302C163.206 30.9181 162.957 31.6837 163.131 32.4132L164.289 37.2669C164.702 38.9974 162.819 40.3651 161.301 39.4378L157.043 36.8368C156.402 36.4458 155.598 36.4458 154.957 36.8368L150.699 39.4378C149.181 40.3651 147.298 38.9974 147.711 37.2669L148.869 32.4132C149.043 31.6837 148.794 30.9181 148.225 30.4302L144.435 27.184C143.084 26.0266 143.803 23.8136 145.576 23.6715L150.55 23.2727C151.298 23.2128 151.949 22.7396 152.237 22.0472L154.153 17.4399Z" fill="#D8D8D8"/>
<path d="M114.153 17.4399C114.837 15.7973 117.163 15.7973 117.847 17.4399L119.763 22.0472C120.051 22.7396 120.702 23.2128 121.45 23.2727L126.424 23.6715C128.197 23.8136 128.916 26.0266 127.565 27.184L123.775 30.4302C123.206 30.9181 122.957 31.6837 123.131 32.4132L124.289 37.2669C124.702 38.9974 122.819 40.3651 121.301 39.4378L117.043 36.8368C116.402 36.4458 115.598 36.4458 114.957 36.8368L110.699 39.4378C109.181 40.3651 107.298 38.9974 107.711 37.2669L108.869 32.4132C109.043 31.6837 108.794 30.9181 108.225 30.4302L104.435 27.184C103.084 26.0266 103.803 23.8136 105.576 23.6715L110.55 23.2727C111.298 23.2128 111.949 22.7396 112.237 22.0472L114.153 17.4399Z" fill="#FBD426"/>
<path d="M74.1534 17.4399C74.8365 15.7973 77.1635 15.7973 77.8466 17.4399L79.7629 22.0472C80.0509 22.7396 80.7022 23.2128 81.4497 23.2727L86.4237 23.6715C88.197 23.8136 88.9161 26.0266 87.565 27.184L83.7754 30.4302C83.2058 30.9181 82.957 31.6837 83.131 32.4132L84.2888 37.2669C84.7016 38.9974 82.8191 40.3651 81.3009 39.4378L77.0425 36.8368C76.4025 36.4458 75.5975 36.4458 74.9575 36.8368L70.6991 39.4378C69.1809 40.3651 67.2984 38.9974 67.7112 37.2669L68.869 32.4132C69.043 31.6837 68.7942 30.9181 68.2246 30.4302L64.435 27.184C63.0839 26.0266 63.803 23.8136 65.5763 23.6715L70.5503 23.2727C71.2978 23.2128 71.9491 22.7396 72.2371 22.0472L74.1534 17.4399Z" fill="#FBD426"/>
<path d="M34.1534 17.4399C34.8365 15.7973 37.1635 15.7973 37.8466 17.4399L39.7629 22.0472C40.0509 22.7396 40.7022 23.2128 41.4497 23.2727L46.4237 23.6715C48.197 23.8136 48.9161 26.0266 47.565 27.184L43.7754 30.4302C43.2058 30.9181 42.957 31.6837 43.131 32.4132L44.2888 37.2669C44.7016 38.9974 42.8191 40.3651 41.3009 39.4378L37.0425 36.8368C36.4025 36.4458 35.5975 36.4458 34.9575 36.8368L30.6991 39.4378C29.1809 40.3651 27.2984 38.9974 27.7112 37.2669L28.869 32.4132C29.043 31.6837 28.7942 30.9181 28.2246 30.4302L24.435 27.184C23.0839 26.0266 23.803 23.8136 25.5763 23.6715L30.5503 23.2727C31.2978 23.2128 31.9491 22.7396 32.2371 22.0472L34.1534 17.4399Z" fill="#FBD426"/>
<defs>
<clipPath id="clip0_1_371">
<rect width="267" height="178" fill="white" transform="translate(0 87)"/>
</clipPath>
</defs>
</svg>
