<svg width="240" height="248" viewBox="0 0 240 248" fill="none" xmlns="http://www.w3.org/2000/svg">
<circle cx="120" cy="117" r="117" fill="#F5F5F5"/>
<g clip-path="url(#clip0_1_368)">
<path d="M72.6483 138.35L15.6139 139.041C8.36636 139.132 2.42682 133.326 2.33633 126.072L1.6453 68.9822C1.55481 61.7358 7.36272 55.7823 14.602 55.6917L71.6446 55C78.8922 54.9094 84.8317 60.7147 84.9222 67.9693L85.6132 125.059C85.6955 132.314 79.8958 138.267 72.6483 138.35Z" fill="#1B87E6"/>
<path d="M34.8639 114.066C34.65 114.066 34.4444 113.984 34.2798 113.827L23.5443 103.073C23.2234 102.752 23.2234 102.233 23.5443 101.912C23.8651 101.591 24.3834 101.591 24.7042 101.912L34.8639 112.081L62.5461 84.3724C62.8669 84.0513 63.3852 84.0513 63.7061 84.3724C64.0269 84.6936 64.0269 85.2123 63.7061 85.5335L35.448 113.827C35.2835 113.984 35.0778 114.066 34.8639 114.066Z" fill="white"/>
<path d="M15.4494 231.547C7.85631 231.547 1.60417 225.363 1.51368 217.763L0.822651 160.665C0.781518 156.935 2.18825 153.419 4.78783 150.751C7.3874 148.083 10.8672 146.592 14.5938 146.543L71.8009 145.851C79.394 145.851 85.6461 152.035 85.7366 159.636L86.4276 216.725C86.4688 220.456 85.062 223.972 82.4625 226.64C79.8629 229.308 76.3831 230.798 72.6565 230.848L15.4494 231.547Z" fill="white"/>
<path d="M71.8009 146.675C78.9744 146.675 84.8235 152.447 84.914 159.644L85.605 216.734C85.6955 223.988 79.8958 229.934 72.6483 230.024L15.6139 230.716C15.5563 230.716 15.507 230.716 15.4494 230.716C8.27586 230.716 2.42682 224.943 2.33633 217.746L1.6453 160.657C1.55481 153.402 7.35449 147.457 14.602 147.366L71.6364 146.675C71.694 146.675 71.7516 146.675 71.8009 146.675ZM71.8009 145.028H71.6199L14.5856 145.719C10.6451 145.769 6.9514 147.35 4.20374 150.174C1.44787 152.999 -0.041132 156.729 0.00822702 160.673L0.699253 217.763C0.797971 225.808 7.42031 232.363 15.4576 232.363H15.6386L72.6729 231.671C80.8089 231.572 87.3572 224.861 87.2585 216.717L86.5675 159.627C86.4606 151.574 79.8464 145.028 71.8009 145.028Z" fill="#0B1B4E"/>
<path d="M34.8639 205.741C34.65 205.741 34.4444 205.658 34.2798 205.502L23.536 194.748C23.2152 194.426 23.2152 193.908 23.536 193.586C23.8569 193.265 24.3751 193.265 24.696 193.586L34.8557 203.756L62.5379 176.047C62.8587 175.726 63.377 175.726 63.6978 176.047C64.0187 176.368 64.0187 176.887 63.6978 177.208L35.4316 205.502C35.2835 205.658 35.0778 205.741 34.8639 205.741Z" fill="#0B1B4E"/>
<path d="M135.902 114.091L107.298 142.722L110.095 145.522C115.212 150.644 123.513 150.644 128.638 145.522L145.486 128.658L135.902 114.091Z" fill="white"/>
<path d="M119.358 150.182C115.788 150.182 112.226 148.824 109.503 146.106L106.706 143.307C106.385 142.986 106.385 142.467 106.706 142.146L135.31 113.514C135.482 113.341 135.729 113.251 135.976 113.275C136.223 113.3 136.445 113.432 136.576 113.638L146.152 128.205C146.366 128.534 146.325 128.962 146.045 129.242L129.197 146.106C126.499 148.824 122.929 150.182 119.358 150.182ZM108.458 142.722L110.671 144.937C115.459 149.73 123.258 149.73 128.046 144.937L144.416 128.55L135.762 115.384L108.458 142.722Z" fill="#0B1B4E"/>
<path d="M132.06 113.284L93.7163 126.204L94.975 129.959C97.2866 136.826 104.723 140.523 111.584 138.21L134.166 130.601L132.06 113.284Z" fill="white"/>
<path d="M107.413 139.708C101.597 139.708 96.1514 136.027 94.2017 130.214L92.943 126.459C92.795 126.031 93.0335 125.561 93.4613 125.413L131.805 112.493C132.044 112.411 132.299 112.444 132.504 112.576C132.71 112.707 132.85 112.93 132.883 113.168L134.989 130.477C135.038 130.864 134.808 131.235 134.438 131.358L111.856 138.967C110.383 139.478 108.886 139.708 107.413 139.708ZM94.7611 126.714L95.7565 129.687C97.9201 136.118 104.896 139.585 111.321 137.419L133.269 130.024L131.361 114.379L94.7611 126.714Z" fill="#0B1B4E"/>
<path d="M205.103 247.177L163.14 205.172L137.44 179.448C128.309 170.308 123.175 157.906 123.175 144.978V96.1231H89.4385C81.5822 96.1231 75.2231 89.7496 75.2231 81.8939V77.6037H143.363L184.586 104.547L199.731 173.593L239.177 213.078L205.103 247.177Z" fill="white"/>
<path d="M205.103 248C204.889 248 204.684 247.918 204.519 247.761L136.856 180.033C127.503 170.67 122.353 158.219 122.353 144.978V96.9465H89.4385C81.1462 96.9465 74.4005 90.1942 74.4005 81.8938V77.6037C74.4005 77.1508 74.7707 76.7802 75.2231 76.7802H143.363C143.52 76.7802 143.676 76.8296 143.816 76.912L185.039 103.855C185.22 103.971 185.343 104.16 185.392 104.366L200.48 173.181L239.753 212.493C240.074 212.814 240.074 213.333 239.753 213.654C239.432 213.975 238.914 213.975 238.593 213.654L199.147 174.17C199.04 174.063 198.958 173.914 198.925 173.766L183.862 105.049L143.125 78.4189H76.054V81.8856C76.054 89.2802 82.0594 95.2914 89.4468 95.2914H123.184C123.636 95.2914 124.006 95.6619 124.006 96.1148V144.97C124.006 157.775 128.983 169.805 138.024 178.855L205.687 246.584C206.008 246.905 206.008 247.424 205.687 247.745C205.523 247.918 205.317 248 205.103 248Z" fill="#0B1B4E"/>
<path d="M127.906 107.462H87.4477V111.423C87.4477 118.669 93.3132 124.548 100.561 124.548H124.385L127.906 107.462Z" fill="white"/>
<path d="M124.393 125.364H100.569C92.8854 125.364 86.6333 119.106 86.6333 111.414V107.454C86.6333 107.001 87.0035 106.63 87.456 106.63H127.914C128.161 106.63 128.391 106.746 128.556 106.935C128.712 107.124 128.769 107.38 128.72 107.618L125.199 124.697C125.117 125.092 124.78 125.364 124.393 125.364ZM88.2786 108.285V111.423C88.2786 118.208 93.7904 123.725 100.569 123.725H123.727L126.91 108.294H88.2786V108.285Z" fill="#0B1B4E"/>
<path d="M216.513 94.7314L73.3557 95.8184L50.3627 106.441L72.2698 116.718L215.427 115.622L216.234 114.28C219.631 108.582 219.903 101.541 216.949 95.5961L216.513 94.7314Z" fill="#0B1B4E"/>
<path d="M208.476 115.919C208.468 115.919 208.46 115.919 208.46 115.919C208.007 115.911 207.645 115.532 207.653 115.079L208.106 95.4314C208.114 94.9785 208.468 94.6161 208.945 94.6244C209.397 94.6326 209.759 95.0114 209.751 95.4643L209.299 115.112C209.29 115.565 208.92 115.919 208.476 115.919Z" fill="white"/>
<path d="M60.4484 101.78L50.3627 106.441L60.4484 111.167V101.78Z" fill="white"/>
<path d="M149.681 130.222L108.878 89.379L108.68 89.6013C102.436 96.8147 102.132 107.445 107.965 114.996L123.365 137.551L149.681 130.222Z" fill="white"/>
<path d="M123.365 138.391C123.101 138.391 122.846 138.267 122.682 138.028L107.29 115.474C101.268 107.676 101.589 96.5512 108.063 89.0743L108.261 88.852C108.409 88.6791 108.623 88.5803 108.853 88.572C109.1 88.5638 109.306 88.6544 109.462 88.8108L150.265 129.654C150.586 129.975 150.586 130.494 150.265 130.815C149.944 131.136 149.426 131.136 149.105 130.815L108.935 90.6059C103.333 97.49 103.177 107.445 108.623 114.511L124.047 137.106C124.302 137.485 124.204 137.995 123.834 138.251C123.685 138.341 123.521 138.391 123.365 138.391Z" fill="#0B1B4E"/>
</g>
<defs>
<clipPath id="clip0_1_368">
<rect width="240" height="193" fill="white" transform="translate(0 55)"/>
</clipPath>
</defs>
</svg>
