<svg width="249" height="248" viewBox="0 0 249 248" fill="none" xmlns="http://www.w3.org/2000/svg">
<circle cx="125" cy="117" r="117" fill="#F5F5F5"/>
<path d="M238.971 247.791L221.792 213.04C215.616 200.535 202.54 192.956 188.623 193.805L120.158 197.97C107.153 198.757 95.6942 206.774 90.4922 218.715L77.8181 247.791H238.971Z" fill="#1B87E6"/>
<path d="M2.08517 110.61C2.93429 109.957 4.05154 109.769 5.07048 110.1L6.13411 110.44C9.19986 111.423 11.5148 113.997 12.1762 117.152L13.946 125.617L16.5201 127.601V121.55C16.5201 118.886 18.2005 116.482 20.7031 115.57L23.9745 114.381C24.0102 114.364 24.0549 114.373 24.0907 114.364C24.913 112.639 26.2894 111.208 28.077 110.324L32.5639 108.107L34.8878 97.6315C34.9683 97.274 35.2454 96.9969 35.6029 96.9165L55.9459 92.519C57.9391 92.0899 59.9233 93.2251 60.5758 95.1557C61.2551 97.1846 61.0942 99.3566 60.12 101.26C59.1457 103.164 57.4832 104.567 55.4454 105.211L46.1051 108.161L46.6056 125.894C46.6682 128.03 47.4905 130.077 48.9206 131.659L51.9148 134.966C55.1504 138.541 60.5937 138.925 64.303 135.842C66.5107 134 67.7084 131.185 67.5117 128.316L66.9665 120.692C66.7341 117.42 67.8693 114.167 70.0859 111.745C71.0959 110.645 72.5617 110.154 74.0276 110.44C75.4845 110.717 76.6732 111.709 77.2095 113.103L83.0729 128.405C85.2806 134.161 83.9309 140.749 79.6317 145.173L65.4023 159.823V203.208C65.4023 203.476 65.2862 203.726 65.0895 203.905C64.9197 204.057 64.6962 204.146 64.4639 204.146C64.4281 204.146 64.4013 204.146 64.3655 204.137L21.74 199.785C21.4808 199.758 21.2484 199.624 21.0875 199.418C20.9355 199.213 20.864 198.953 20.9087 198.694L24.9487 174.24L26.4503 163.728L4.90065 134.796C4.81127 134.68 4.75764 134.546 4.73083 134.412L0.824905 113.488C0.815964 113.443 0.815971 113.398 0.807037 113.354C0.75341 112.281 1.22712 111.262 2.08517 110.61Z" fill="white"/>
<path d="M64.4371 204.093C64.9287 204.093 65.3309 203.69 65.3309 203.199V159.796L79.5782 145.137C83.8685 140.722 85.2181 134.161 83.0104 128.414L77.147 113.112C76.6197 111.736 75.4399 110.753 74.0009 110.476C72.5529 110.198 71.096 110.681 70.1039 111.772C67.8962 114.176 66.77 117.429 67.0024 120.683L67.5476 128.307C67.7531 131.194 66.5465 134.018 64.3299 135.869C60.6027 138.97 55.1416 138.586 51.8881 134.993L48.8938 131.686C47.4548 130.095 46.6325 128.039 46.57 125.894L46.0694 108.134L55.4544 105.184C57.4833 104.541 59.1369 103.146 60.1022 101.251C61.0675 99.3566 61.2284 97.2025 60.558 95.1825C59.9234 93.2698 57.957 92.1525 55.9817 92.5726L35.6298 96.9701C35.2901 97.0416 35.022 97.3098 34.9505 97.6494L28.7296 125.652C28.6223 126.135 28.9262 126.609 29.4089 126.716C29.8916 126.823 30.3653 126.519 30.4725 126.037L36.5683 98.5969L56.3571 94.3155C57.4386 94.0831 58.5112 94.6999 58.8598 95.7456C59.3782 97.3098 59.253 98.9723 58.5023 100.438C57.7515 101.904 56.4733 102.985 54.9092 103.477L44.8807 106.632C44.4963 106.748 44.2461 107.115 44.255 107.508L44.7734 125.947C44.8449 128.513 45.837 130.979 47.5621 132.883L50.5563 136.19C54.4533 140.498 61.0049 140.963 65.4739 137.245C68.1375 135.028 69.5765 131.641 69.3262 128.182L68.781 120.558C68.5844 117.787 69.5497 115.025 71.4178 112.978C71.9898 112.353 72.83 112.075 73.6612 112.236C74.4924 112.397 75.1717 112.96 75.4756 113.756L81.339 129.058C83.2875 134.152 82.0987 139.98 78.2911 143.895L63.7936 158.821C63.6327 158.991 63.5433 159.215 63.5433 159.447V203.208C63.5433 203.69 63.9455 204.093 64.4371 204.093Z" fill="#0B1B4E"/>
<path d="M23.0542 130.461C23.5101 130.461 23.9033 130.112 23.9391 129.648L25.0832 117.474C25.3066 115.079 26.7278 113.014 28.8818 111.95L33.6011 109.617C34.048 109.403 34.2268 108.867 34.0034 108.42C33.7888 107.982 33.2525 107.794 32.8056 108.018L28.0864 110.35C25.3692 111.691 23.5816 114.292 23.2956 117.304L22.1515 129.478C22.1068 129.969 22.4643 130.407 22.9559 130.452C23.0006 130.461 23.0274 130.461 23.0542 130.461Z" fill="#0B1B4E"/>
<path d="M17.4585 132.329C17.9501 132.329 18.3523 131.927 18.3523 131.435V121.541C18.3523 119.646 19.55 117.93 21.3376 117.286L24.609 116.097C25.0737 115.928 25.3151 115.418 25.1453 114.953C24.9754 114.489 24.466 114.247 24.0012 114.417L20.7299 115.606C18.2451 116.509 16.5737 118.895 16.5737 121.541V131.435C16.5647 131.927 16.9669 132.329 17.4585 132.329Z" fill="#0B1B4E"/>
<path d="M21.8112 199.74C22.2403 199.74 22.6156 199.427 22.6961 198.989L26.7361 174.517L28.2913 163.612C28.3271 163.38 28.2645 163.139 28.1215 162.951L6.46458 133.875L2.61228 113.228C2.61228 112.773 2.81787 112.353 3.18433 112.075C3.56866 111.789 4.04238 111.7 4.49822 111.852L5.57077 112.192C8.01086 112.978 9.8521 115.025 10.3794 117.537L12.2207 126.341C12.2654 126.546 12.3816 126.734 12.5514 126.868L16.5914 129.978C16.9847 130.282 17.5478 130.211 17.8427 129.817C18.1466 129.424 18.0662 128.861 17.6819 128.566L13.901 125.661L12.1313 117.188C11.4699 114.051 9.17282 111.494 6.11601 110.511L5.04343 110.172C4.04237 109.85 2.93406 110.038 2.09388 110.681C1.25371 111.325 0.779978 112.335 0.824669 113.389C0.824669 113.434 0.833597 113.479 0.842535 113.514L4.74849 134.438C4.7753 134.573 4.82892 134.698 4.90936 134.805L26.4679 163.755L24.9664 174.284L20.9264 198.739C20.8459 199.221 21.1766 199.686 21.6593 199.767C21.7129 199.731 21.7665 199.74 21.8112 199.74Z" fill="#0B1B4E"/>
<path d="M107.063 106.194C107.42 106.194 107.76 105.98 107.894 105.631C108.073 105.175 107.849 104.657 107.394 104.469L98.0533 100.778C97.5974 100.599 97.079 100.823 96.8914 101.278C96.7126 101.734 96.936 102.253 97.3919 102.44L106.732 106.132C106.839 106.176 106.947 106.194 107.063 106.194Z" fill="#0B1B4E"/>
<path d="M98.1961 119.02C98.4374 119.02 98.6788 118.922 98.8575 118.725C99.1882 118.359 99.1614 117.796 98.7949 117.465L91.6981 111.03C91.3317 110.699 90.7686 110.726 90.4379 111.092C90.1072 111.459 90.134 112.022 90.5004 112.353L97.5973 118.788C97.7671 118.94 97.9816 119.02 98.1961 119.02Z" fill="#0B1B4E"/>
<path d="M99.2869 91.9917C99.3763 91.9917 99.4746 91.9738 99.564 91.947L108.86 88.9438C109.333 88.7918 109.584 88.2913 109.432 87.8176C109.28 87.3439 108.779 87.0936 108.305 87.2456L99.0098 90.2487C98.5361 90.4007 98.2859 90.9012 98.4378 91.3749C98.5629 91.7503 98.9115 91.9917 99.2869 91.9917Z" fill="#0B1B4E"/>
<path d="M13.9462 70.5046C14.2769 70.5046 14.5719 70.3258 14.7327 70.0398L16.8421 66.1875L20.6944 64.0781C20.9805 63.9172 21.1592 63.6223 21.1592 63.2916C21.1592 62.9609 20.9805 62.6659 20.6944 62.505L16.8421 60.3956L14.7327 56.5433C14.4199 55.9713 13.4814 55.9713 13.1686 56.5433L11.0592 60.3956L7.20692 62.505C6.9209 62.6659 6.74212 62.9609 6.74212 63.2916C6.74212 63.6223 6.9209 63.9172 7.20692 64.0781L11.0592 66.1875L13.1686 70.0398C13.3205 70.3258 13.6155 70.5046 13.9462 70.5046ZM18.3974 63.3005L15.7517 64.7485C15.5998 64.8289 15.4746 64.9541 15.3942 65.106L13.9462 67.7517L12.4982 65.106C12.4178 64.9541 12.2927 64.8289 12.1407 64.7485L9.49506 63.3005L12.1407 61.8526C12.2927 61.7721 12.4178 61.647 12.4982 61.495L13.9462 58.8494L15.3942 61.495C15.4746 61.647 15.5998 61.7721 15.7517 61.8526L18.3974 63.3005Z" fill="#1B87E6"/>
<path d="M127.683 195.771L134.074 154.853L172.061 160.779L167.761 198.051L127.683 195.771Z" fill="white"/>
<path d="M167.761 198.944C168.208 198.944 168.592 198.605 168.646 198.149L172.945 160.877C172.999 160.403 172.668 159.965 172.194 159.894L134.208 153.968C133.725 153.897 133.26 154.227 133.189 154.71L126.807 195.628C126.771 195.879 126.834 196.129 126.995 196.325C127.156 196.522 127.388 196.638 127.638 196.656L167.708 198.935C167.725 198.944 167.743 198.944 167.761 198.944ZM171.068 161.53L166.966 197.112L128.72 194.931L134.816 155.872L171.068 161.53Z" fill="#0B1B4E"/>
<path d="M166.394 107.571C166.394 107.571 145.577 119.342 141.189 116.616C136.809 113.899 126.629 104.818 131.205 96.7019C135.781 88.5862 137.971 92.0988 141.662 93.7613C145.354 95.4238 148.366 86.2623 150.86 86.9595C153.353 87.6566 155.525 89.8464 159.315 94.6462C163.105 99.4459 166.394 107.571 166.394 107.571Z" fill="#0B1B4E"/>
<path d="M160.084 173.998C169.281 172.792 178.13 168.099 184.511 160.189C197.4 144.199 195.005 121.469 179.81 108.634C154.873 87.5851 132.68 107.195 129.685 112.469C128.979 113.702 128.3 114.9 127.63 116.044C126.28 117.84 125.109 119.717 124.117 121.657C121.436 125.536 118.763 128.191 115.635 128.664C110.853 129.397 107.018 164.792 133.618 166.91L160.084 173.998Z" fill="white"/>
<path d="M160.084 174.892C160.119 174.892 160.164 174.892 160.2 174.883C170.014 173.596 178.898 168.573 185.208 160.743C198.312 144.485 196.193 121.29 180.382 107.946C170.961 99.991 160.977 96.8806 150.734 98.704C139.526 100.697 130.981 108.366 128.908 112.022C128.219 113.237 127.54 114.417 126.888 115.543C125.547 117.331 124.358 119.235 123.357 121.192C120.47 125.357 118.048 127.386 115.51 127.779C112.605 128.226 111.112 135.225 111.344 141.741C111.577 148.051 113.347 153.932 116.332 158.303C120.229 164.005 126.03 167.205 133.555 167.804C134.056 167.849 134.476 167.473 134.521 166.982C134.557 166.49 134.19 166.061 133.698 166.016C115.384 164.551 113.329 147.014 113.141 141.678C112.864 134.108 114.893 129.683 115.787 129.549C118.861 129.075 121.659 126.805 124.868 122.166C124.895 122.131 124.912 122.104 124.93 122.068C125.905 120.164 127.058 118.323 128.354 116.589C128.371 116.562 128.389 116.535 128.407 116.5C129.078 115.347 129.766 114.149 130.463 112.915C131.884 110.413 139.723 102.485 151.056 100.474C160.754 98.7486 170.237 101.725 179.238 109.331C194.298 122.05 196.31 144.145 183.823 159.644C177.808 167.116 169.335 171.907 159.976 173.131C159.485 173.194 159.145 173.641 159.208 174.132C159.261 174.57 159.646 174.892 160.084 174.892Z" fill="#0B1B4E"/>
<path d="M187.246 103.656C176.896 95.3165 163.462 93.3054 151.395 97.0326C154.685 98.4716 157.822 100.322 160.718 102.655C180.373 118.493 181.847 149.258 164.025 171.379C163.033 172.604 162.005 173.775 160.941 174.901C172.614 174.82 184.305 169.583 192.359 159.59C206.329 142.232 204.041 117.197 187.246 103.656Z" fill="#0B1B4E"/>
<path d="M149.367 94.1009C149.367 94.1009 150.555 105.014 158.314 111.602C162.416 115.079 155.704 113.121 153.478 118.243C151.252 123.355 153.067 168.269 153.067 168.269C153.201 171.907 155.695 175.044 159.207 175.991L169.808 178.852L174.965 169.583L188.095 128.003C188.095 128.003 171.73 92.1703 149.367 94.1009Z" fill="#0B1B4E"/>
<path d="M118.611 147.139C122.061 147.139 124.296 144.413 124.394 144.297C124.707 143.913 124.644 143.35 124.26 143.037C123.876 142.724 123.312 142.787 123.009 143.171C122.973 143.207 121.042 145.531 118.298 145.343C117.798 145.316 117.378 145.682 117.351 146.174C117.315 146.666 117.69 147.095 118.182 147.13C118.316 147.139 118.459 147.139 118.611 147.139Z" fill="#0B1B4E"/>
<path d="M138.891 122.104C139.267 122.104 139.624 121.863 139.74 121.487C140.277 119.834 139.579 117.349 138.06 115.445C136.415 113.389 134.145 112.379 131.678 112.603C131.187 112.647 130.82 113.085 130.865 113.577C130.91 114.069 131.339 114.435 131.839 114.381C134.342 114.149 135.933 115.651 136.666 116.553C137.908 118.109 138.346 120.003 138.042 120.933C137.89 121.407 138.149 121.907 138.623 122.059C138.712 122.086 138.802 122.104 138.891 122.104Z" fill="#0B1B4E"/>
<path d="M130.087 125.625C129.292 126.403 128.193 126.573 127.63 126.001C127.066 125.429 127.254 124.329 128.05 123.552C128.845 122.774 129.944 122.604 130.508 123.176C131.071 123.748 130.883 124.848 130.087 125.625Z" fill="#0B1B4E"/>
<path d="M132.223 166.714L130.176 179.808C136.111 178.431 141.644 175.142 145.755 170.03C147.4 167.983 148.705 165.784 149.697 163.487C144.352 166.428 138.203 167.536 132.223 166.714Z" fill="#0B1B4E"/>
<path d="M247.525 172.22C247.766 172.22 248.007 172.202 248.24 172.166C248.731 172.094 249.062 171.639 248.991 171.147C248.919 170.655 248.463 170.325 247.972 170.396C246.086 170.691 243.225 169.047 240.312 165.999C234.958 160.395 230.274 151.054 231.686 144.047C232.384 140.597 232.241 138.514 231.213 137.111C229.89 135.296 227.36 135.002 223.857 134.599C220.657 134.233 216.671 133.777 211.835 132.07C205.444 129.817 206.159 125.804 207.241 119.717C208.296 113.792 209.601 106.409 203.228 99.2761C196.113 91.3123 181.383 91.7503 170.282 93.52C162.837 94.7088 161.55 93.8954 159.932 92.8675C159.002 92.2776 157.948 91.6073 155.892 91.1782C155.409 91.071 154.935 91.3838 154.828 91.8665C154.73 92.3491 155.034 92.8228 155.516 92.9301C157.259 93.2966 158.126 93.8507 158.966 94.3781C160.835 95.5579 162.443 96.5858 170.559 95.2897C181.222 93.5915 195.309 93.1089 201.887 100.474C207.679 106.963 206.508 113.577 205.471 119.414C204.416 125.375 203.415 131.006 211.236 133.759C216.268 135.529 220.532 136.02 223.651 136.378C226.699 136.727 228.898 136.977 229.765 138.166C230.453 139.104 230.498 140.865 229.935 143.698C228.406 151.305 233.349 161.297 239.025 167.232C242.117 170.477 245.102 172.22 247.525 172.22Z" fill="#0B1B4E"/>
<path d="M243.235 173.945C236.62 174.695 224.286 157.168 227.012 145.888C229.729 134.608 222.105 139.712 208.18 134.197C194.254 128.682 212.184 114.998 200.484 100.84C194.183 93.2161 180.373 92.7156 168.584 94.1367C156.795 95.5489 159.565 92.6262 153.97 91.214C150.216 90.2665 153.416 96.121 167.27 112.844C155.713 114.256 142.968 117.948 138.704 126.582C130.57 143.055 151.164 152.252 138.883 160.815C126.593 169.377 118.004 166.168 123.241 176.519C125.86 181.694 124.859 186.422 122.383 189.962C119.898 193.501 123.223 205.424 162.971 208.168C181.017 209.411 200.555 208.383 217.109 201.322C235.253 193.59 246.694 173.551 243.235 173.945Z" fill="#0B1B4E"/>
<path d="M68.7629 41L44.085 72.5245H93.4409L68.7629 41Z" fill="#1B87E6"/>
<path d="M53.8901 66.2589H83.636V122.408H53.8901V66.2589Z" fill="#1B87E6"/>
<path d="M64.8926 136.548C67.3417 134.51 68.6556 131.417 68.4321 128.235L67.8869 120.611C67.6724 117.581 68.7092 114.605 70.756 112.37C72.4274 110.547 75.4306 111.119 76.3155 113.425L82.1788 128.727L64.8926 136.548Z" fill="white"/>
<path d="M64.8929 137.442C65.0984 137.442 65.2951 137.37 65.4649 137.236C68.1284 135.019 69.5675 131.632 69.3172 128.173L68.772 120.549C68.5753 117.778 69.5406 115.016 71.4087 112.969C71.9807 112.344 72.8209 112.066 73.6522 112.227C74.4834 112.388 75.1627 112.951 75.4666 113.747L81.3299 129.049C81.5087 129.514 82.0271 129.737 82.4829 129.567C82.9477 129.388 83.1712 128.87 83.0014 128.414L77.138 113.112C76.6106 111.736 75.4308 110.753 73.9918 110.476C72.5438 110.198 71.0869 110.681 70.0948 111.772C67.8871 114.176 66.7609 117.429 66.9933 120.683L67.5385 128.307C67.7441 131.194 66.5375 134.018 64.3208 135.869C63.9454 136.181 63.8918 136.744 64.2046 137.129C64.3834 137.334 64.6337 137.442 64.8929 137.442Z" fill="#0B1B4E"/>
<path d="M68.4772 247.791L65.3668 196.147L16.2164 192.411L6.25945 247.791H68.4772Z" fill="#1B87E6"/>
</svg>
