<svg width="265" height="249" viewBox="0 0 265 249" fill="none" xmlns="http://www.w3.org/2000/svg">
<circle cx="133" cy="117" r="117" fill="#F5F5F5"/>
<g clip-path="url(#clip0_1_370)">
<path d="M134.259 118.567C134.793 115.523 134.119 112.444 132.342 109.916C130.942 107.922 128.99 106.47 126.732 105.674C127.117 105.263 127.502 104.851 127.835 104.388C129.612 101.851 130.294 98.7811 129.752 95.7372C128.771 90.1917 123.975 86.1682 118.347 86.1682C118.32 86.1682 118.294 86.1769 118.268 86.1769C119.66 82.9318 119.598 79.1094 117.699 75.8206C115.633 72.2519 111.791 70.0302 107.651 70.0302C106.277 70.0302 104.92 70.2926 103.633 70.7737C103.668 70.2139 103.703 69.6541 103.651 69.0855C103.379 66.0066 101.926 63.2164 99.5544 61.2221C97.4713 59.4727 94.8279 58.5105 92.1058 58.5105C89.3224 58.5105 86.6966 59.5427 84.6221 61.3095C83.6156 57.907 81.0948 55.003 77.5149 53.6998C76.2545 53.2362 74.924 53 73.5674 53C69.3748 53 65.541 55.2917 63.5104 58.8604C61.3922 56.0352 58.0486 54.1721 54.2499 54.1721C48.5256 54.1721 43.7903 58.3443 42.8625 63.8111C41.0069 62.5866 38.8099 61.8781 36.4992 61.8781C35.1513 61.8781 33.8121 62.1142 32.5342 62.5778C29.6283 63.6362 27.3 65.7617 25.9958 68.5694C24.9718 70.7649 24.6917 73.1703 25.1206 75.5145C24.254 75.3133 23.3612 75.1908 22.451 75.1908C19.7376 75.1908 17.0942 76.153 15.0111 77.9024C12.6391 79.8879 11.1861 82.6781 10.9148 85.7658C10.7047 88.1799 11.2649 90.5328 12.464 92.5884C8.85784 93.017 5.61055 95.1075 3.77246 98.2913C2.22321 100.968 1.81183 104.09 2.61709 107.082C3.24729 109.435 4.58647 111.455 6.42456 112.977C3.23854 114.578 0.849022 117.578 0.192561 121.287C-0.34136 124.331 0.332607 127.41 2.10943 129.938C3.50988 131.932 5.46175 133.384 7.71997 134.18C5.29545 136.751 4.03504 140.373 4.70026 144.116C5.68057 149.662 10.4684 153.685 16.0964 153.685C16.1227 153.685 16.1489 153.677 16.1752 153.677C14.7835 156.922 14.8448 160.744 16.7441 164.024C18.8098 167.593 22.661 169.815 26.7923 169.815C28.1665 169.815 29.5232 169.552 30.8099 169.071C30.7749 169.631 30.7399 170.191 30.7924 170.759C31.0637 173.838 32.5167 176.628 34.8887 178.623C36.9719 180.372 39.6152 181.334 42.3373 181.334C45.1207 181.334 47.7466 180.302 49.821 178.535C50.8276 181.938 53.3484 184.842 56.9283 186.145C58.2062 186.609 59.5366 186.845 60.8933 186.845C65.0859 186.845 68.9196 184.553 70.9503 180.984C73.0684 183.81 76.412 185.673 80.2107 185.673C85.9351 185.673 90.6703 181.5 91.5981 176.034C93.4537 177.258 95.6507 177.967 97.9614 177.967C99.3093 177.967 100.649 177.73 101.926 177.267C104.832 176.208 107.152 174.083 108.465 171.275C109.489 169.08 109.769 166.674 109.34 164.33C110.207 164.531 111.099 164.654 112.01 164.654C114.723 164.654 117.366 163.692 119.458 161.942C123.835 158.269 124.78 152.041 121.997 147.256C125.603 146.836 128.859 144.737 130.688 141.553C132.237 138.877 132.649 135.754 131.844 132.763C131.213 130.41 129.874 128.389 128.036 126.867C131.213 125.284 133.603 122.284 134.259 118.567Z" fill="#0B1B4E"/>
<path d="M174.321 182.06L182.82 247.391H145.323C145.305 247.391 145.559 166.639 145.559 166.639L139.45 158.059C138.531 156.773 138.609 154.997 139.835 153.694C140.045 153.475 140.299 153.3 140.579 153.178C143.117 152.015 146.023 152.312 148.255 153.948L159.354 162.047C159.38 162.065 159.389 162.091 159.406 162.109L174.321 182.06Z" fill="white"/>
<path d="M145.122 248.265C145.113 248.265 145.113 248.265 145.104 248.265C144.623 248.257 144.238 247.863 144.246 247.373L145.594 166.622L139.485 158.041C138.898 157.21 138.723 156.178 139.012 155.198C139.301 154.219 140.01 153.44 140.955 153.064C143.397 152.085 146.119 152.434 148.246 153.983L159.345 162.082C159.739 162.371 159.818 162.913 159.537 163.307C159.249 163.7 158.706 163.779 158.312 163.499L147.214 155.4C145.577 154.21 143.485 153.939 141.603 154.691C141.157 154.866 140.824 155.233 140.693 155.697C140.561 156.161 140.64 156.642 140.92 157.035L147.196 165.852C147.301 166.001 147.362 166.185 147.362 166.377L146.014 247.417C145.988 247.88 145.594 248.265 145.122 248.265Z" fill="#0B1B4E"/>
<path d="M186.006 176.235C160.22 176.235 139.248 155.277 139.248 129.509C139.248 103.741 160.22 82.7831 186.006 82.7831C211.792 82.7831 232.763 103.741 232.763 129.509C232.763 155.277 211.792 176.235 186.006 176.235ZM186.006 102.988C171.371 102.988 159.467 114.884 159.467 129.509C159.467 144.134 171.371 156.029 186.006 156.029C200.641 156.029 212.544 144.134 212.544 129.509C212.544 114.884 200.641 102.988 186.006 102.988Z" fill="white"/>
<path d="M186.006 83.6578C211.345 83.6578 231.888 104.187 231.888 129.509C231.888 154.831 211.345 175.36 186.006 175.36C160.667 175.36 140.124 154.831 140.124 129.509C140.124 104.187 160.667 83.6578 186.006 83.6578ZM186.006 156.904C201.148 156.904 213.42 144.641 213.42 129.509C213.42 114.377 201.148 102.114 186.006 102.114C170.864 102.114 158.592 114.377 158.592 129.509C158.592 144.632 170.872 156.904 186.006 156.904ZM186.006 81.9084C159.739 81.9084 138.373 103.26 138.373 129.509C138.373 155.758 159.739 177.109 186.006 177.109C212.273 177.109 233.639 155.758 233.639 129.509C233.639 103.26 212.273 81.9084 186.006 81.9084ZM186.006 155.155C171.853 155.155 160.343 143.653 160.343 129.509C160.343 115.365 171.853 103.863 186.006 103.863C200.159 103.863 211.669 115.365 211.669 129.509C211.669 143.653 200.159 155.155 186.006 155.155Z" fill="#0B1B4E"/>
<path d="M186.006 83.6578C185.726 83.6578 185.446 83.6753 185.157 83.6753V102.131C185.437 102.122 185.717 102.114 186.006 102.114C201.148 102.114 213.42 114.377 213.42 129.509C213.42 134.573 212.037 139.314 209.638 143.381L225.63 152.609C229.604 145.822 231.888 137.932 231.888 129.509C231.888 104.187 211.345 83.6578 186.006 83.6578Z" fill="#1B87E6"/>
<path d="M149.227 104.703L163.319 114.132C168.089 107.108 176.045 102.429 185.113 102.131V83.6753C169.647 83.9727 156.063 91.8974 147.966 103.863L149.227 104.703Z" fill="#0B1B4E"/>
<path d="M251.687 56.1401H207.442C200.571 56.1401 195.004 61.7031 195.004 68.5694V77.8411C195.004 84.7074 200.571 90.2704 207.442 90.2704H208.562V102.761L222.155 90.2704H251.687C258.558 90.2704 264.125 84.7074 264.125 77.8411V68.5694C264.125 61.7031 258.558 56.1401 251.687 56.1401Z" fill="white"/>
<path d="M208.553 103.636C208.431 103.636 208.317 103.609 208.203 103.566C207.888 103.426 207.678 103.111 207.678 102.761V91.1539H207.433C200.089 91.1539 194.12 85.1885 194.12 77.8499V68.5694C194.12 61.2308 200.089 55.2654 207.433 55.2654H251.678C259.022 55.2654 264.991 61.2308 264.991 68.5694V77.8411C264.991 85.1798 259.022 91.1451 251.678 91.1451H222.496L209.148 103.4C208.982 103.557 208.772 103.636 208.553 103.636ZM207.433 57.0148C201.052 57.0148 195.87 62.2017 195.87 68.5694V77.8411C195.87 84.2176 201.061 89.3958 207.433 89.3958H208.553C209.035 89.3958 209.428 89.7894 209.428 90.2704V100.767L221.56 89.6319C221.717 89.4832 221.936 89.4045 222.155 89.4045H251.687C258.068 89.4045 263.249 84.2176 263.249 77.8499V68.5694C263.249 62.193 258.059 57.0148 251.687 57.0148H207.433Z" fill="#0B1B4E"/>
<path d="M247.311 69.5403H212.343C211.862 69.5403 211.468 69.1467 211.468 68.6657C211.468 68.1846 211.862 67.791 212.343 67.791H247.311C247.792 67.791 248.186 68.1846 248.186 68.6657C248.186 69.1467 247.792 69.5403 247.311 69.5403Z" fill="#0B1B4E"/>
<path d="M247.311 77.8849H212.343C211.862 77.8849 211.468 77.4913 211.468 77.0102C211.468 76.5291 211.862 76.1355 212.343 76.1355H247.311C247.792 76.1355 248.186 76.5291 248.186 77.0102C248.186 77.4913 247.792 77.8849 247.311 77.8849Z" fill="#0B1B4E"/>
<path d="M104.019 114.502C109.797 98.9871 101.08 81.425 84.5482 75.2766C68.0165 69.1281 49.9307 76.7215 44.1524 92.2369C38.3741 107.752 47.0914 125.314 63.623 131.463C80.1547 137.611 98.2405 130.018 104.019 114.502Z" fill="#0B1B4E"/>
<path d="M60.7054 184.995H96.1981L96.1981 117.303H60.7054L60.7054 184.995Z" fill="white"/>
<path d="M96.2021 185.865H60.7094C60.228 185.865 59.8342 185.471 59.8342 184.99V117.298C59.8342 116.817 60.228 116.424 60.7094 116.424H96.2021C96.6835 116.424 97.0774 116.817 97.0774 117.298V184.99C97.0774 185.48 96.6835 185.865 96.2021 185.865ZM61.5847 184.116H95.3268V118.173H61.5847V184.116Z" fill="#0B1B4E"/>
<path d="M95.7995 157.945C86.3289 155.785 78.1626 148.918 74.8015 139.052L71.703 129.973L95.7995 121.733V157.945Z" fill="#0B1B4E"/>
<path d="M66.2413 105.061C67.5804 95.2736 75.3792 87.244 85.6462 86.0457C97.8214 84.6199 108.85 93.3231 110.277 105.49L110.565 107.922C113.016 107.904 115.143 109.715 115.415 112.208C115.686 114.674 114.04 116.887 111.677 117.429L112.675 125.914C114.102 138.081 105.393 149.102 93.2174 150.528C81.0423 151.953 70.0137 143.25 68.587 131.083L67.7292 123.78L63.3353 122.608C58.5651 121.339 55.7204 116.441 56.9895 111.674C58.1099 107.476 62.0574 104.773 66.2413 105.061Z" fill="white"/>
<path d="M90.6178 151.56C79.0904 151.56 69.0947 142.909 67.7205 131.188L66.9327 124.479L63.1078 123.465C57.8736 122.074 54.7488 116.686 56.1405 111.455C57.2784 107.187 61.1296 104.23 65.4885 104.169C67.2041 94.1278 75.3442 86.3781 85.5412 85.1798C91.6594 84.4625 97.6989 86.1681 102.53 89.9905C107.362 93.8042 110.425 99.2797 111.143 105.394L111.344 107.099C113.927 107.432 115.992 109.47 116.281 112.12C116.57 114.727 115.029 117.15 112.631 118.059L113.541 125.818C115.021 138.439 105.953 149.915 93.3137 151.402C92.4122 151.507 91.5106 151.56 90.6178 151.56ZM65.6286 105.919C62.0049 105.919 58.7839 108.359 57.8386 111.91C56.692 116.205 59.2653 120.631 63.5629 121.777L67.9568 122.949C68.3069 123.045 68.5608 123.334 68.6045 123.692L69.4623 130.996C70.8365 142.664 81.4449 151.044 93.1211 149.67C104.797 148.306 113.183 137.696 111.808 126.028L110.811 117.543C110.758 117.097 111.047 116.686 111.485 116.59C113.445 116.144 114.767 114.307 114.548 112.313C114.329 110.31 112.64 108.805 110.609 108.805C110.592 108.805 110.583 108.805 110.565 108.805C110.119 108.805 109.751 108.473 109.699 108.035L109.41 105.595C108.745 99.9445 105.918 94.8888 101.454 91.3638C96.9899 87.8388 91.4143 86.2556 85.7513 86.9204C76.0882 88.0487 68.4207 95.5623 67.1078 105.184C67.0465 105.639 66.6439 105.971 66.18 105.936C65.9962 105.919 65.8124 105.919 65.6286 105.919Z" fill="#0B1B4E"/>
<path d="M66.3463 117.561C66.3025 117.561 66.2675 117.561 66.2237 117.552C65.7423 117.491 65.4097 117.045 65.4797 116.564C65.8999 113.476 63.3791 111.989 63.2653 111.928C62.8451 111.692 62.6963 111.158 62.9414 110.738C63.1777 110.318 63.7117 110.17 64.1318 110.406C64.2806 110.493 67.808 112.522 67.2128 116.8C67.1515 117.246 66.7751 117.561 66.3463 117.561Z" fill="#0B1B4E"/>
<path d="M104.614 121.628C103.003 121.628 100.771 120.928 98.9505 117.771C98.7054 117.351 98.8542 116.817 99.2744 116.572C99.6945 116.327 100.228 116.476 100.473 116.896C102.828 120.989 105.681 119.782 105.997 119.625C106.425 119.415 106.951 119.599 107.161 120.027C107.371 120.456 107.196 120.981 106.767 121.191C106.749 121.208 105.865 121.628 104.614 121.628Z" fill="#0B1B4E"/>
<path d="M104.911 108.088C104.859 109.33 103.983 110.301 102.959 110.257C101.935 110.213 101.139 109.172 101.191 107.93C101.244 106.688 102.119 105.717 103.143 105.761C104.167 105.805 104.964 106.855 104.911 108.088Z" fill="#0B1B4E"/>
<path d="M102.942 100.347C103.266 101.055 101.935 102.359 99.9746 103.251C98.014 104.143 96.1584 104.3 95.8345 103.592C95.5107 102.883 96.8411 101.58 98.8017 100.688C100.762 99.787 102.618 99.6383 102.942 100.347Z" fill="#0B1B4E"/>
<path d="M20.6654 248.58H154.557L97.7164 178.448C91.3093 170.549 81.725 165.896 71.5542 165.756C56.2456 165.546 42.6612 175.5 38.2498 190.142L20.6654 248.58Z" fill="#1B87E6"/>
<path d="M211.153 172.736C209.393 171.45 207.258 170.838 205.122 170.908L208.903 167.208C209.227 166.893 209.472 166.499 209.595 166.062C210.111 164.147 209.035 162.485 207.433 162.004L208.597 160.858C208.912 160.552 209.157 160.175 209.271 159.756C209.849 157.735 208.632 155.951 206.881 155.583C205.288 155.242 203.652 155.286 202.094 155.662C202.304 154.508 201.918 153.23 200.614 152.321C200.422 152.19 200.203 152.093 199.975 152.032C196.588 151.184 192.956 152.058 190.321 154.333L174.505 167.986C174.478 167.969 174.461 167.951 174.443 167.934L162.049 161.977C159.555 160.779 156.649 161.006 154.364 162.616C154.119 162.791 153.892 163.009 153.726 163.263C152.754 164.759 153.008 166.526 154.137 167.619L161.699 174.949C161.699 174.949 174.837 247.391 174.846 247.391H212.982L192.781 184.894L210.321 177.704C211.888 177.066 212.702 175.168 211.722 173.392C211.599 173.13 211.389 172.911 211.153 172.736Z" fill="white"/>
<path d="M170.925 173.156C170.68 173.156 170.435 173.051 170.26 172.85C169.945 172.482 169.98 171.931 170.347 171.616L190.339 154.359C192.868 152.172 196.334 151.289 199.608 151.988C200.754 152.233 201.665 153.082 201.989 154.201C202.312 155.321 201.997 156.528 201.166 157.35L185.253 172.911C184.903 173.252 184.352 173.243 184.019 172.893C183.678 172.552 183.686 171.993 184.037 171.66L199.949 156.099C200.325 155.732 200.466 155.199 200.317 154.691C200.168 154.184 199.774 153.808 199.249 153.703C196.509 153.117 193.612 153.86 191.494 155.688L171.503 172.946C171.336 173.086 171.126 173.156 170.925 173.156Z" fill="#0B1B4E"/>
<path d="M191.406 177.083C191.179 177.083 190.951 176.996 190.776 176.821C190.444 176.471 190.452 175.92 190.794 175.587L207.214 159.712C207.59 159.345 207.73 158.82 207.582 158.304C207.433 157.796 207.039 157.42 206.514 157.315C204.474 156.878 202.33 157.167 200.483 158.137C200.054 158.365 199.529 158.19 199.301 157.761C199.074 157.333 199.24 156.808 199.669 156.581C201.875 155.426 204.439 155.085 206.873 155.601C208.019 155.846 208.93 156.694 209.253 157.814C209.577 158.933 209.262 160.14 208.422 160.963L192.002 176.83C191.844 177.004 191.625 177.083 191.406 177.083Z" fill="#0B1B4E"/>
<path d="M194.741 179.2C194.496 179.2 194.251 179.095 194.076 178.903C193.761 178.535 193.796 177.984 194.164 177.669L207.555 166.036C207.897 165.703 208.037 165.17 207.888 164.663C207.739 164.155 207.345 163.779 206.82 163.674C206.382 163.578 205.927 163.517 205.481 163.491C205 163.464 204.632 163.044 204.658 162.563C204.684 162.082 205.105 161.715 205.586 161.741C206.12 161.776 206.663 161.846 207.179 161.96C208.326 162.205 209.236 163.053 209.56 164.173C209.884 165.292 209.568 166.499 208.737 167.322L195.31 178.99C195.144 179.13 194.943 179.2 194.741 179.2Z" fill="#0B1B4E"/>
<path d="M212.186 248.265C211.818 248.265 211.477 248.038 211.354 247.67L195.441 200.429L190.881 184.597C190.759 184.168 190.977 183.713 191.389 183.547L209.665 176.06C210.067 175.894 210.33 175.535 210.382 175.106C210.426 174.678 210.242 174.275 209.884 174.031C207.783 172.605 204.588 172.141 202.286 172.92C201.831 173.077 201.332 172.832 201.174 172.369C201.017 171.914 201.262 171.415 201.726 171.258C204.544 170.304 208.308 170.847 210.864 172.579C211.757 173.182 212.238 174.214 212.124 175.29C212.01 176.357 211.328 177.276 210.33 177.678L192.781 184.868L197.113 199.913L213.017 247.119C213.175 247.574 212.921 248.073 212.466 248.23C212.378 248.248 212.282 248.265 212.186 248.265Z" fill="#0B1B4E"/>
<path d="M174.662 248.265C174.242 248.265 173.875 247.959 173.796 247.531L161.734 174.923L154.172 167.593C153.437 166.884 153.078 165.896 153.183 164.881C153.288 163.867 153.839 162.974 154.706 162.432C156.929 161.033 159.669 160.866 162.041 162.012L174.426 167.96C174.864 168.17 175.047 168.695 174.837 169.124C174.627 169.561 174.102 169.745 173.673 169.535L161.279 163.578C159.459 162.703 157.349 162.826 155.634 163.902C155.231 164.155 154.968 164.575 154.916 165.056C154.863 165.529 155.038 166.001 155.38 166.333L163.152 173.864C163.284 173.996 163.38 174.162 163.406 174.345L175.511 247.233C175.59 247.705 175.266 248.16 174.794 248.239C174.759 248.257 174.706 248.265 174.662 248.265Z" fill="#0B1B4E"/>
<path d="M69.401 68.7531C53.4796 71.1847 41.2607 82.8356 37.322 97.4429C39.0375 98.2563 40.9894 98.5625 42.9238 98.2651C44.0529 98.0901 45.1382 97.7053 46.136 97.1455C46.1798 97.6091 46.2236 98.0726 46.3374 98.5362C46.95 101.038 48.4993 103.155 50.705 104.493C52.6394 105.665 54.9414 106.129 57.1821 105.787C59.4753 105.438 61.506 104.257 62.9939 102.534C64.2543 105.21 66.6964 107.283 69.8124 107.904C70.924 108.123 72.0531 108.149 73.1647 107.983C76.6221 107.458 79.4842 105.079 80.7096 101.886C82.8103 103.951 85.8038 105.061 88.9285 104.58C93.6463 103.863 97.0161 99.822 97.0949 95.2124C98.7754 95.9909 100.675 96.297 102.583 96.0084C103.694 95.8422 104.762 95.4748 105.76 94.9325C107.931 93.7429 109.524 91.8011 110.294 89.4657C102.714 74.9459 86.504 66.1378 69.401 68.7531Z" fill="#0B1B4E"/>
<path d="M93.1386 249C92.8235 249 92.5259 248.834 92.3684 248.545L81.7337 228.978C81.5061 228.55 81.6637 228.025 82.0838 227.789C82.5127 227.561 83.0379 227.719 83.2742 228.139L93.9089 247.705C94.1364 248.134 93.9789 248.659 93.5588 248.895C93.4187 248.965 93.2787 249 93.1386 249Z" fill="#0B1B4E"/>
</g>
<defs>
<clipPath id="clip0_1_370">
<rect width="265" height="196" fill="white" transform="translate(0 53)"/>
</clipPath>
</defs>
</svg>
