<svg viewBox="0 0 16 16" fill="none" xmlns="http://www.w3.org/2000/svg">
<mask id="mask0_221_264" style="mask-type:alpha" maskUnits="userSpaceOnUse" x="0" y="0" width="16" height="16">
<rect width="16" height="16" fill="#D9D9D9"/>
</mask>
<g mask="url(#mask0_221_264)">
<path d="M3.6 13.6C3.27 13.6 2.9875 13.4825 2.7525 13.2475C2.5175 13.0125 2.4 12.73 2.4 12.4V3.6C2.4 3.27 2.5175 2.9875 2.7525 2.7525C2.9875 2.5175 3.27 2.4 3.6 2.4H6.45C6.53889 2.04444 6.72795 1.75555 7.01717 1.53333C7.30639 1.31111 7.63417 1.2 8.0005 1.2C8.36684 1.2 8.69445 1.31111 8.98334 1.53333C9.27222 1.75555 9.46111 2.04444 9.55 2.4H12.4C12.73 2.4 13.0125 2.5175 13.2475 2.7525C13.4825 2.9875 13.6 3.27 13.6 3.6V12.4C13.6 12.73 13.4825 13.0125 13.2475 13.2475C13.0125 13.4825 12.73 13.6 12.4 13.6H3.6ZM8 3.2C8.11556 3.2 8.21111 3.16222 8.28667 3.08666C8.36222 3.01111 8.4 2.91555 8.4 2.8C8.4 2.68444 8.36222 2.58889 8.28667 2.51333C8.21111 2.43777 8.11556 2.4 8 2.4C7.88445 2.4 7.78889 2.43777 7.71333 2.51333C7.63778 2.58889 7.6 2.68444 7.6 2.8C7.6 2.91555 7.63778 3.01111 7.71333 3.08666C7.78889 3.16222 7.88445 3.2 8 3.2ZM8.004 9.2C8.668 9.2 9.23333 8.96533 9.7 8.496C10.1667 8.02666 10.4 7.46 10.4 6.796C10.4 6.132 10.1653 5.56666 9.696 5.1C9.22667 4.63333 8.66 4.4 7.996 4.4C7.332 4.4 6.76667 4.63466 6.3 5.104C5.83333 5.57333 5.6 6.14 5.6 6.804C5.6 7.468 5.83467 8.03333 6.304 8.5C6.77334 8.96666 7.34 9.2 8.004 9.2ZM3.6 12.4H12.4V11.5167C11.7667 11.0167 11.075 10.6389 10.325 10.3833C9.575 10.1278 8.8 10 8 10C7.2 10 6.425 10.1278 5.675 10.3833C4.925 10.6389 4.23333 11.0167 3.6 11.5167V12.4Z" fill="#545E6B"/>
</g>
</svg>
