<svg width="17" height="16" viewBox="0 0 17 16" fill="none" xmlns="http://www.w3.org/2000/svg">
<path d="M4.03478 9.75846H5.36626C5.47386 9.75846 5.57809 9.73813 5.67896 9.69747C5.77983 9.65681 5.87061 9.59582 5.9513 9.5145L9.72383 5.69243C9.84487 5.57045 9.93565 5.43153 9.99617 5.27567C10.0567 5.1198 10.087 4.96733 10.087 4.81824C10.087 4.66915 10.0567 4.52345 9.99617 4.38114C9.93565 4.23883 9.85159 4.10668 9.744 3.9847L8.99757 3.21216C8.87652 3.09018 8.74203 2.99869 8.59409 2.9377C8.44615 2.87671 8.29148 2.84622 8.13009 2.84622C7.98214 2.84622 7.8342 2.87671 7.68626 2.9377C7.53832 2.99869 7.40383 3.09018 7.28278 3.21216L3.46991 7.01389C3.38922 7.09521 3.3287 7.1867 3.28835 7.28835C3.248 7.39 3.22783 7.49504 3.22783 7.60347V8.94525C3.22783 9.17566 3.30516 9.3688 3.45983 9.52466C3.61449 9.68053 3.80614 9.75846 4.03478 9.75846ZM8.10991 5.61111L7.3433 4.8589L8.13009 4.06602L8.87652 4.83857L8.10991 5.61111ZM7.424 9.75846H12.1043C12.333 9.75846 12.5246 9.68053 12.6793 9.52466C12.834 9.3688 12.9113 9.17566 12.9113 8.94525C12.9113 8.71485 12.834 8.52171 12.6793 8.36585C12.5246 8.20998 12.333 8.13205 12.1043 8.13205H9.03791L7.424 9.75846ZM3.22783 13.0113L1.37183 14.8816C1.11629 15.1392 0.823768 15.1968 0.494261 15.0545C0.164754 14.9121 0 14.658 0 14.2921V1.62641C0 1.17915 0.158029 0.796263 0.474087 0.477758C0.790145 0.159253 1.17009 0 1.61391 0H14.5252C14.969 0 15.349 0.159253 15.665 0.477758C15.9811 0.796263 16.1391 1.17915 16.1391 1.62641V11.3849C16.1391 11.8321 15.9811 12.215 15.665 12.5335C15.349 12.852 14.969 13.0113 14.5252 13.0113H3.22783Z" fill="#9B9B9B"/>
</svg>
