<svg width="20" height="20" viewBox="0 0 20 20" fill="none" xmlns="http://www.w3.org/2000/svg">
<mask id="mask0_6060_77608" style="mask-type:alpha" maskUnits="userSpaceOnUse" x="0" y="0" width="20" height="20">
<rect width="20" height="20" fill="#D9D9D9"/>
</mask>
<g mask="url(#mask0_6060_77608)">
<path d="M11.4211 17.1176V16.0147C11.4211 15.7794 11.4667 15.5551 11.5579 15.3419C11.6491 15.1287 11.7719 14.9412 11.9263 14.7794L16.0737 10.4338C16.2 10.3015 16.3404 10.2059 16.4947 10.1471C16.6491 10.0882 16.8035 10.0588 16.9579 10.0588C17.1263 10.0588 17.2877 10.0919 17.4421 10.1581C17.5965 10.2243 17.7368 10.3235 17.8632 10.4559L18.6421 11.2721C18.7544 11.4044 18.8421 11.5515 18.9053 11.7132C18.9684 11.875 19 12.0368 19 12.1985C19 12.3603 18.9719 12.5257 18.9158 12.6949C18.8596 12.864 18.7684 13.0147 18.6421 13.1471L14.4947 17.4926C14.3404 17.6544 14.1614 17.7794 13.9579 17.8676C13.7544 17.9559 13.5404 18 13.3158 18H12.2632C12.0246 18 11.8246 17.9154 11.6632 17.7463C11.5018 17.5772 11.4211 17.3676 11.4211 17.1176ZM3 16.2353V14.6471C3 14.1471 3.12281 13.6875 3.36842 13.2684C3.61404 12.8493 3.94035 12.5294 4.34737 12.3088C5.21754 11.8529 6.10175 11.511 7 11.2831C7.89825 11.0551 8.81053 10.9412 9.73684 10.9412C10.2561 10.9412 10.7684 10.9743 11.2737 11.0404C11.7789 11.1066 12.2842 11.2132 12.7895 11.3603L10.4737 13.7868C10.2351 14.0368 10.0526 14.3235 9.92632 14.6471C9.8 14.9706 9.73684 15.3088 9.73684 15.6618V17.1176H3.84211C3.60351 17.1176 3.40351 17.0331 3.24211 16.864C3.0807 16.6949 3 16.4853 3 16.2353ZM16.9579 13.0588L17.7368 12.1985L16.9579 11.3824L16.1579 12.2206L16.9579 13.0588ZM9.73684 10.0588C8.81053 10.0588 8.01754 9.71324 7.35789 9.02206C6.69825 8.33088 6.36842 7.5 6.36842 6.52941C6.36842 5.55882 6.69825 4.72794 7.35789 4.03676C8.01754 3.34559 8.81053 3 9.73684 3C10.6632 3 11.4561 3.34559 12.1158 4.03676C12.7754 4.72794 13.1053 5.55882 13.1053 6.52941C13.1053 7.5 12.7754 8.33088 12.1158 9.02206C11.4561 9.71324 10.6632 10.0588 9.73684 10.0588Z" fill="#9B9B9B"/>
</g>
</svg>
