<svg viewBox="0 0 16 16" fill="none" xmlns="http://www.w3.org/2000/svg">
<g clip-path="url(#clip0_221_221)">
<mask id="mask0_221_221" style="mask-type:alpha" maskUnits="userSpaceOnUse" x="-1" y="-1" width="18" height="18">
<rect x="-1" y="-1" width="18" height="18" fill="#D9D9D9"/>
</mask>
<g mask="url(#mask0_221_221)">
<path d="M13.9625 14.75C12.4 14.75 10.8563 14.4094 9.33125 13.7281C7.80625 13.0469 6.41875 12.0813 5.16875 10.8313C3.91875 9.58125 2.95313 8.19375 2.27188 6.66875C1.59063 5.14375 1.25 3.6 1.25 2.0375C1.25 1.8125 1.325 1.625 1.475 1.475C1.625 1.325 1.8125 1.25 2.0375 1.25H5.075C5.25 1.25 5.40625 1.30937 5.54375 1.42812C5.68125 1.54688 5.7625 1.6875 5.7875 1.85L6.275 4.475C6.3 4.675 6.29375 4.84375 6.25625 4.98125C6.21875 5.11875 6.15 5.2375 6.05 5.3375L4.23125 7.175C4.48125 7.6375 4.77812 8.08438 5.12187 8.51562C5.46562 8.94687 5.84375 9.3625 6.25625 9.7625C6.64375 10.15 7.05 10.5094 7.475 10.8406C7.9 11.1719 8.35 11.475 8.825 11.75L10.5875 9.9875C10.7 9.875 10.8469 9.79063 11.0281 9.73438C11.2094 9.67812 11.3875 9.6625 11.5625 9.6875L14.15 10.2125C14.325 10.2625 14.4687 10.3531 14.5812 10.4844C14.6937 10.6156 14.75 10.7625 14.75 10.925V13.9625C14.75 14.1875 14.675 14.375 14.525 14.525C14.375 14.675 14.1875 14.75 13.9625 14.75Z" fill="#545E6B"/>
</g>
</g>
<defs>
<clipPath id="clip0_221_221">
<rect width="16" height="16" fill="white"/>
</clipPath>
</defs>
</svg>
