<svg viewBox="0 0 16 16" fill="none" xmlns="http://www.w3.org/2000/svg">
<g clip-path="url(#clip0_221_261)">
<mask id="mask0_221_261" style="mask-type:alpha" maskUnits="userSpaceOnUse" x="-1" y="-1" width="18" height="18">
<rect x="-1" y="-1" width="18" height="18" fill="#D9D9D9"/>
</mask>
<g mask="url(#mask0_221_261)">
<path d="M4.25 9.5V14C4.25 14.2125 4.17812 14.3906 4.03437 14.5344C3.89062 14.6781 3.7125 14.75 3.5 14.75C3.2875 14.75 3.10937 14.6781 2.96562 14.5344C2.82187 14.3906 2.75 14.2125 2.75 14V2.75C2.75 2.5375 2.82187 2.35937 2.96562 2.21562C3.10937 2.07187 3.2875 2 3.5 2H8.88125C9.05625 2 9.2125 2.05625 9.35 2.16875C9.4875 2.28125 9.575 2.425 9.6125 2.6L9.8 3.5H13.25C13.4625 3.5 13.6406 3.57188 13.7844 3.71563C13.9281 3.85938 14 4.0375 14 4.25V10.25C14 10.4625 13.9281 10.6406 13.7844 10.7844C13.6406 10.9281 13.4625 11 13.25 11H9.36875C9.19375 11 9.0375 10.9438 8.9 10.8313C8.7625 10.7188 8.675 10.575 8.6375 10.4L8.45 9.5H4.25Z" fill="#545E6B"/>
</g>
</g>
<defs>
<clipPath id="clip0_221_261">
<rect width="16" height="16" fill="white"/>
</clipPath>
</defs>
</svg>
