<svg width="24" height="24" viewBox="0 0 24 24" fill="none" xmlns="http://www.w3.org/2000/svg">
<path d="M4.24995 11.5414C7.2195 9.6907 9.55206 6.91497 10.9162 3.60861L11.4145 2.40106C11.6351 1.86631 12.3649 1.86631 12.5855 2.40106L13.0838 3.60861C14.4479 6.91496 16.7805 9.6907 19.7501 11.5414C20.0833 11.7491 20.0833 12.2508 19.7501 12.4586C16.7805 14.3093 14.4479 17.085 13.0838 20.3914L12.5855 21.5989C12.3649 22.1337 11.6351 22.1337 11.4145 21.5989L10.9162 20.3914C9.55206 17.085 7.2195 14.3093 4.24995 12.4586C3.91668 12.2508 3.91668 11.7491 4.24995 11.5414Z" fill="#545E6B"/>
</svg>
