<svg width="16" height="16" viewBox="0 0 16 16" fill="none" xmlns="http://www.w3.org/2000/svg">
<mask id="mask0_217_326" style="mask-type:alpha" maskUnits="userSpaceOnUse" x="-1" y="-1" width="18" height="18">
<rect x="-1" y="-1" width="18" height="18" fill="#D9D9D9"/>
</mask>
<g mask="url(#mask0_217_326)">
<path d="M8.03748 14C6.36248 14 4.93748 13.4188 3.76248 12.2563C2.58748 11.0938 1.99998 9.675 1.99998 8V7.86875L1.32498 8.54375C1.18748 8.68125 1.01248 8.75 0.799976 8.75C0.587476 8.75 0.412476 8.68125 0.274976 8.54375C0.137476 8.40625 0.0687256 8.23125 0.0687256 8.01875C0.0687256 7.80625 0.137476 7.63125 0.274976 7.49375L2.22498 5.54375C2.37498 5.39375 2.54998 5.31875 2.74998 5.31875C2.94998 5.31875 3.12498 5.39375 3.27498 5.54375L5.22498 7.49375C5.36248 7.63125 5.43123 7.80625 5.43123 8.01875C5.43123 8.23125 5.36248 8.40625 5.22498 8.54375C5.08748 8.68125 4.91248 8.75 4.69998 8.75C4.48748 8.75 4.31248 8.68125 4.17498 8.54375L3.49998 7.86875V8C3.49998 9.25 3.9406 10.3125 4.82185 11.1875C5.7031 12.0625 6.77498 12.5 8.03748 12.5C8.23748 12.5 8.43435 12.4875 8.6281 12.4625C8.82185 12.4375 9.01248 12.3938 9.19998 12.3313C9.41248 12.2688 9.61248 12.275 9.79998 12.35C9.98748 12.425 10.1312 12.5562 10.2312 12.7437C10.3312 12.9437 10.3406 13.1406 10.2594 13.3344C10.1781 13.5281 10.0312 13.6562 9.81873 13.7188C9.53123 13.8188 9.23748 13.8906 8.93748 13.9344C8.63748 13.9781 8.33748 14 8.03748 14ZM7.96248 3.5C7.76248 3.5 7.5656 3.5125 7.37185 3.5375C7.1781 3.5625 6.98748 3.60625 6.79998 3.66875C6.58748 3.73125 6.38435 3.725 6.1906 3.65C5.99685 3.575 5.84998 3.44375 5.74998 3.25625C5.64998 3.06875 5.6406 2.87813 5.72185 2.68438C5.8031 2.49063 5.94373 2.3625 6.14373 2.3C6.44373 2.2 6.74373 2.125 7.04373 2.075C7.34373 2.025 7.64998 2 7.96248 2C9.63748 2 11.0625 2.58125 12.2375 3.74375C13.4125 4.90625 14 6.325 14 8V8.13125L14.675 7.45625C14.8125 7.31875 14.9875 7.25 15.2 7.25C15.4125 7.25 15.5875 7.31875 15.725 7.45625C15.8625 7.59375 15.9312 7.76875 15.9312 7.98125C15.9312 8.19375 15.8625 8.36875 15.725 8.50625L13.775 10.4563C13.625 10.6063 13.45 10.6812 13.25 10.6812C13.05 10.6812 12.875 10.6063 12.725 10.4563L10.775 8.50625C10.6375 8.36875 10.5687 8.19375 10.5687 7.98125C10.5687 7.76875 10.6375 7.59375 10.775 7.45625C10.9125 7.31875 11.0875 7.25 11.3 7.25C11.5125 7.25 11.6875 7.31875 11.825 7.45625L12.5 8.13125V8C12.5 6.75 12.0594 5.6875 11.1781 4.8125C10.2969 3.9375 9.22498 3.5 7.96248 3.5Z" fill="currentColor"/>
</g>
</svg>
