<svg width="20" height="19" viewBox="0 0 20 19" fill="none" xmlns="http://www.w3.org/2000/svg">
<path d="M15.25 7.5H7.375C6.0625 7.5 4.92188 7.91667 3.95313 8.75C2.98438 9.58333 2.5 10.625 2.5 11.875C2.5 13.125 2.98438 14.1667 3.95313 15C4.92188 15.8333 6.0625 16.25 7.375 16.25H15C15.3542 16.25 15.651 16.3698 15.8906 16.6094C16.1302 16.849 16.25 17.1458 16.25 17.5C16.25 17.8542 16.1302 18.151 15.8906 18.3906C15.651 18.6302 15.3542 18.75 15 18.75H7.375C5.35417 18.75 3.61979 18.0938 2.17188 16.7812C0.723958 15.4687 0 13.8333 0 11.875C0 9.91667 0.723958 8.28125 2.17188 6.96875C3.61979 5.65625 5.35417 5 7.375 5H15.25L12.875 2.625C12.6458 2.39583 12.5313 2.10417 12.5313 1.75C12.5313 1.39583 12.6458 1.10417 12.875 0.875C13.1042 0.645833 13.3958 0.53125 13.75 0.53125C14.1042 0.53125 14.3958 0.645833 14.625 0.875L19.125 5.375C19.25 5.5 19.3385 5.63542 19.3906 5.78125C19.4427 5.92708 19.4687 6.08333 19.4687 6.25C19.4687 6.41667 19.4427 6.57292 19.3906 6.71875C19.3385 6.86458 19.25 7 19.125 7.125L14.625 11.625C14.3958 11.8542 14.1042 11.9688 13.75 11.9688C13.3958 11.9688 13.1042 11.8542 12.875 11.625C12.6458 11.3958 12.5313 11.1042 12.5313 10.75C12.5313 10.3958 12.6458 10.1042 12.875 9.875L15.25 7.5Z" fill="#545E6B"/>
</svg>
