<svg width="16" height="16" viewBox="0 0 16 16" fill="none" xmlns="http://www.w3.org/2000/svg">
<path d="M3.5 6.5C4.88071 6.5 6 5.38071 6 4C6 2.61929 4.88071 1.5 3.5 1.5C2.11929 1.5 1 2.61929 1 4C1 5.38071 2.11929 6.5 3.5 6.5Z" fill="#9B9B9B"/>
<path d="M3.5 15.5C4.88071 15.5 6 14.3807 6 13C6 11.6193 4.88071 10.5 3.5 10.5C2.11929 10.5 1 11.6193 1 13C1 14.3807 2.11929 15.5 3.5 15.5Z" fill="#9B9B9B"/>
<path d="M15 4C15 5.38071 13.8807 6.5 12.5 6.5C11.1193 6.5 10 5.38071 10 4C10 2.61929 11.1193 1.5 12.5 1.5C13.8807 1.5 15 2.61929 15 4Z" fill="#9B9B9B"/>
<path d="M12.5 15.5C13.8807 15.5 15 14.3807 15 13C15 11.6193 13.8807 10.5 12.5 10.5C11.1193 10.5 10 11.6193 10 13C10 14.3807 11.1193 15.5 12.5 15.5Z" fill="#9B9B9B"/>
</svg>
