<svg viewBox="0 0 16 16" fill="none" xmlns="http://www.w3.org/2000/svg">
<g clip-path="url(#clip0_221_297)">
<mask id="mask0_221_297" style="mask-type:alpha" maskUnits="userSpaceOnUse" x="-1" y="-1" width="18" height="18">
<rect x="-1" y="-1" width="18" height="18" fill="#D9D9D9"/>
</mask>
<g mask="url(#mask0_221_297)">
<path fill-rule="evenodd" clip-rule="evenodd" d="M3.78125 8.875V9.75H3.54336C3.91947 9.75 4.05586 9.79061 4.19336 9.86687C4.33086 9.94313 4.43877 10.055 4.5123 10.1976C4.58584 10.3402 4.625 10.4817 4.625 10.8717V12.1283C4.625 12.5183 4.58584 12.6598 4.5123 12.8024C4.43877 12.945 4.33086 13.0569 4.19336 13.1331C4.05586 13.2094 3.91947 13.25 3.54336 13.25H2.33164C1.95553 13.25 1.81914 13.2094 1.68164 13.1331C1.54414 13.0569 1.43623 12.945 1.3627 12.8024C1.28916 12.6598 1.25 12.5183 1.25 12.1283V10.8717C1.25 10.4817 1.28916 10.3402 1.3627 10.1976C1.43623 10.055 1.54414 9.94313 1.68164 9.86687C1.81914 9.79061 1.95553 9.75 2.33164 9.75H2.09375V8C2.09375 7.51675 2.47151 7.125 2.9375 7.125H7.15625V6.25H7.39414C7.01803 6.25 6.88164 6.20939 6.74414 6.13313C6.60664 6.05687 6.49873 5.94496 6.4252 5.80237C6.35166 5.65978 6.3125 5.51834 6.3125 5.1283V3.8717C6.3125 3.48166 6.35166 3.34022 6.4252 3.19763C6.49873 3.05504 6.60664 2.94313 6.74414 2.86687C6.88164 2.79061 7.01803 2.75 7.39414 2.75H8.60586C8.98197 2.75 9.11836 2.79061 9.25586 2.86687C9.39336 2.94313 9.50127 3.05504 9.5748 3.19763C9.64834 3.34022 9.6875 3.48166 9.6875 3.8717V5.1283C9.6875 5.51834 9.64834 5.65978 9.5748 5.80237C9.50127 5.94496 9.39336 6.05687 9.25586 6.13313C9.11836 6.20939 8.98197 6.25 8.60586 6.25H8.84375V7.125H13.0625C13.5285 7.125 13.9062 7.51675 13.9062 8V9.75H13.6684C14.0445 9.75 14.1809 9.79061 14.3184 9.86687C14.4559 9.94313 14.5638 10.055 14.6373 10.1976C14.7108 10.3402 14.75 10.4817 14.75 10.8717V12.1283C14.75 12.5183 14.7108 12.6598 14.6373 12.8024C14.5638 12.945 14.4559 13.0569 14.3184 13.1331C14.1809 13.2094 14.0445 13.25 13.6684 13.25H12.4566C12.0805 13.25 11.9441 13.2094 11.8066 13.1331C11.6691 13.0569 11.5612 12.945 11.4877 12.8024C11.4142 12.6598 11.375 12.5183 11.375 12.1283V10.8717C11.375 10.4817 11.4142 10.3402 11.4877 10.1976C11.5612 10.055 11.6691 9.94313 11.8066 9.86687C11.9441 9.79061 12.0805 9.75 12.4566 9.75H12.2188V8.875H8.84375V9.75H8.60586C8.98197 9.75 9.11836 9.79061 9.25586 9.86687C9.39336 9.94313 9.50127 10.055 9.5748 10.1976C9.64834 10.3402 9.6875 10.4817 9.6875 10.8717V12.1283C9.6875 12.5183 9.64834 12.6598 9.5748 12.8024C9.50127 12.945 9.39336 13.0569 9.25586 13.1331C9.11836 13.2094 8.98197 13.25 8.60586 13.25H7.39414C7.01803 13.25 6.88164 13.2094 6.74414 13.1331C6.60664 13.0569 6.49873 12.945 6.4252 12.8024C6.35166 12.6598 6.3125 12.5183 6.3125 12.1283V10.8717C6.3125 10.4817 6.35166 10.3402 6.4252 10.1976C6.49873 10.055 6.60664 9.94313 6.74414 9.86687C6.88164 9.79061 7.01803 9.75 7.39414 9.75H7.15625V8.875H3.78125Z" fill="#545E6B"/>
</g>
</g>
<defs>
<clipPath id="clip0_221_297">
<rect width="16" height="16" fill="white"/>
</clipPath>
</defs>
</svg>
