<svg viewBox="0 0 16 16" fill="none" xmlns="http://www.w3.org/2000/svg">
<g clip-path="url(#clip0_221_262)">
<mask id="mask0_221_262" style="mask-type:alpha" maskUnits="userSpaceOnUse" x="-1" y="-1" width="18" height="18">
<rect x="-1" y="-1" width="18" height="18" fill="#D9D9D9"/>
</mask>
<g mask="url(#mask0_221_262)">
<path d="M6 4C6 5.10457 5.10457 6 4 6C2.89543 6 2 5.10457 2 4C2 2.89543 2.89543 2 4 2C5.10457 2 6 2.89543 6 4Z" fill="#545E6B"/>
<path d="M14 4C14 5.10457 13.1046 6 12 6C10.8955 6 10 5.10457 10 4C10 2.89543 10.8955 2 12 2C13.1046 2 14 2.89543 14 4Z" fill="#545E6B"/>
<path d="M6 12C6 13.1046 5.10457 14 4 14C2.89543 14 2 13.1046 2 12C2 10.8954 2.89543 10 4 10C5.10457 10 6 10.8954 6 12Z" fill="#545E6B"/>
<path d="M14 12C14 13.1046 13.1046 14 12 14C10.8955 14 10 13.1046 10 12C10 10.8954 10.8955 10 12 10C13.1046 10 14 10.8954 14 12Z" fill="#545E6B"/>
</g>
</g>
<defs>
<clipPath id="clip0_221_262">
<rect width="16" height="16" fill="white"/>
</clipPath>
</defs>
</svg>
