<svg width="28" height="28" viewBox="0 0 28 28" fill="none" xmlns="http://www.w3.org/2000/svg">
<circle cx="14" cy="14" r="14" fill="#E8E8E8"/>
<mask id="mask0_6158_89439" style="mask-type:alpha" maskUnits="userSpaceOnUse" x="3" y="3" width="22" height="22">
<rect x="3.5" y="3.63098" width="21" height="21" fill="#D9D9D9"/>
</mask>
<g mask="url(#mask0_6158_89439)">
<path d="M14 14.131C13.0375 14.131 12.2135 13.7883 11.5281 13.1029C10.8427 12.4174 10.5 11.5935 10.5 10.631C10.5 9.66848 10.8427 8.84452 11.5281 8.15911C12.2135 7.47369 13.0375 7.13098 14 7.13098C14.9625 7.13098 15.7865 7.47369 16.4719 8.15911C17.1573 8.84452 17.5 9.66848 17.5 10.631C17.5 11.5935 17.1573 12.4174 16.4719 13.1029C15.7865 13.7883 14.9625 14.131 14 14.131ZM7 19.381V18.681C7 18.1851 7.1276 17.7294 7.38281 17.3138C7.63802 16.8982 7.97708 16.581 8.4 16.3622C9.30417 15.9101 10.2229 15.5711 11.1562 15.345C12.0896 15.119 13.0375 15.006 14 15.006C14.9625 15.006 15.9104 15.119 16.8438 15.345C17.7771 15.5711 18.6958 15.9101 19.6 16.3622C20.0229 16.581 20.362 16.8982 20.6172 17.3138C20.8724 17.7294 21 18.1851 21 18.681V19.381C21 19.8622 20.8286 20.2742 20.4859 20.6169C20.1432 20.9596 19.7312 21.131 19.25 21.131H8.75C8.26875 21.131 7.85677 20.9596 7.51406 20.6169C7.17135 20.2742 7 19.8622 7 19.381Z" fill="#9B9B9B"/>
</g>
</svg>
